<?xml version="1.0" encoding="utf-8"?>

<!DOCTYPE svg PUBLIC "-//W3C//DTD SVG 1.1//EN" "http://www.w3.org/Graphics/SVG/1.1/DTD/svg11.dtd">
<!-- Uploaded to: SVG Repo, www.svgrepo.com, Generator: SVG Repo Mixer Tools -->
<svg height="800px" width="800px" version="1.1" id="_x32_" xmlns="http://www.w3.org/2000/svg" xmlns:xlink="http://www.w3.org/1999/xlink" 
	 viewBox="0 0 512 512"  xml:space="preserve">
<style type="text/css">
	.st0{fill:#000000;}
</style>
<g>
	<path class="st0" d="M439.292,130.183c-47.955-21.453-106.125-40.426-136.447-44.216c-24.459-3.057-106.125,30.322-106.125,30.322
		s-14.088-20.565-24.629-17.056c-10.541,3.517-19.928,12.208-41.011,40.322C81.578,205.557,0,229.453,0,229.453l43.921,57.978
		l33.556-10.822c-6.5-24.851-1.932-40.13-1.932-40.13c3.517,14.058,22.845,33.386,22.845,33.386l3.509,14.05l-45.675,15.812
		l14.05,17.574c0,0,38.657-5.27,80.823-10.541c42.166-5.271,50.945,29.862,50.945,29.862l17.574,89.61h35.134l14.058-79.068h159.884
		l17.566,79.068h38.65c0,0,19.432-87.589,26.398-180.448C516.991,169.979,487.306,151.665,439.292,130.183z"/>
</g>
</svg>