<?xml version="1.0" ?><!-- Uploaded to: SVG Repo, www.svgrepo.com, Generator: SVG Repo Mixer Tools -->
<svg fill="#000000" width="800px" height="800px" viewBox="0 0 100 100" id="Слой_1" version="1.1" xml:space="preserve" xmlns="http://www.w3.org/2000/svg" xmlns:xlink="http://www.w3.org/1999/xlink"><path d="M92.21,76.801c-1.43,4.24-4.33,6.14-6.06,7.27c-0.1,0.07-0.17,0.16-0.21,0.27c-0.41,1.24-2.11,5.48-6.81,7.51  c-4.46,1.92-8.51,0.49-9.65,0c-0.11-0.05-0.24-0.06-0.35-0.02c-8.9,2.94-17.6-0.2-19.12-3.75c-0.45-1.03-0.35-2.19,0.3-3.54  c0.12-0.25,0.02-0.54-0.23-0.66s-0.55-0.02-0.67,0.23c-0.47,0.97-0.7,1.88-0.68,2.73c-5.36-0.08-10.58-3-13.44-5.92  c-1.73-1.76-2.65-3.54-2.61-5c0.02-0.79,0.28-2.89,2.18-5.26c0.18-0.22,0.14-0.53-0.07-0.7c-0.22-0.18-0.53-0.14-0.71,0.07  c-1.38,1.72-1.97,3.33-2.22,4.48c-6.68-4.75-10.22-13.57-7.91-19.87c2.58-7.07,10.03-9.29,10.87-9.52c0.14-0.03,0.26-0.13,0.32-0.25  c1-2.01,3.98-6.96,10.07-9.68c5.66-2.52,10.84-1.79,13.42-1.13c0.2,0.06,0.42-0.03,0.54-0.2c0.05-0.07,5.06-7.32,14.84-5.9  c8.83,1.29,11.98,11.5,13.08,18.03c-1-0.29-1.99-0.3-2.85-0.01c-0.26,0.09-0.4,0.38-0.31,0.64c0.08,0.26,0.37,0.4,0.63,0.31  c1.12-0.38,2.57-0.09,3.87,0.76c2.36,1.54,3.91,4.64,4.26,8.5c0.53,5.97-0.59,9.67-0.99,10.74c-0.25-0.14-0.52-0.24-0.82-0.32  c-0.27-0.07-0.54,0.1-0.61,0.36c-0.07,0.27,0.1,0.54,0.36,0.61c0.71,0.18,1.21,0.56,1.68,1.24  C93.73,70.921,92.57,75.731,92.21,76.801z"/><path d="M80.28,29.641c-1.68-1.35-3.7-2.32-6.12-2.67c-0.4-0.06-0.79-0.1-1.18-0.13c0.28-1.48,0.41-2.85,0.42-4.14  c0.87-0.2,1.82-0.36,2.75-0.51c2.52-0.42,4.73-0.79,5.78-1.71C82.4,21.811,82.31,27.271,80.28,29.641z"/><path d="M46.54,27.231c-1.08-0.17-2.29-0.28-3.67-0.3h-0.01c-0.21-0.33-2.59-3.71-8.95-8.13c-4.44-3.08-8.42-3.73-11.61-4.25  c-1.46-0.24-2.72-0.45-3.71-0.85c-0.82-1.46-0.42-3.51,0.36-4.93c0.6-1.09,1.4-1.77,2.07-1.77c5.41,0,10.62,1.79,15.09,5.18  c6.33,4.81,8.83,11.05,10.17,14.4C46.37,26.811,46.46,27.031,46.54,27.231z"/><path d="M71.98,26.781c-2.38-0.06-4.46,0.36-6.22,1.02c1.01-2.14,1.63-4.68,1.84-7.56c0.02-0.27-0.18-0.51-0.46-0.53  c-0.27-0.03-0.52,0.18-0.54,0.46c-0.24,3.25-1,6.02-2.27,8.24c-3.23,1.58-5.17,3.82-5.78,4.6c-1.03-0.25-2.4-0.49-4-0.56  c-0.29-0.96-1.36-3.21-5.16-4.52c0.15-3.69,0.43-6.93,8.65-12.01c5.29-3.27,5.27-6.79,5.26-8.3v-0.2c0.95,0.38,3.56,1.91,5.76,4.9  C71.13,15.111,73.3,19.891,71.98,26.781z"/><path d="M53.48,32.421c-2.53,0-5.54,0.46-8.68,1.86c-2.39,1.07-4.32,2.46-5.86,3.91c-0.08-0.06-0.18-0.08-0.28-0.07  c-6.09,0.48-10.81-2.54-11.65-3.83c-0.16-0.23-0.47-0.29-0.7-0.14c-0.23,0.16-0.29,0.47-0.14,0.7c1.1,1.66,5.65,4.32,11.21,4.32  c0.19,0,0.39,0,0.59-0.01c-1.56,1.63-2.61,3.23-3.27,4.4c-5.31-0.09-9.22-1.67-11.66-4.7c-0.03-0.11-0.1-0.19-0.19-0.24  c0,0,0-0.01-0.01-0.01c-3.96-5.24-2.59-13.06-2.07-15.36c0.02-0.12,0.11-0.15,0.16-0.16s0.15-0.01,0.22,0.11  c1.21,2.01,5.08,6.55,15,5.18C49.72,26.501,52.8,30.711,53.48,32.421z"/><path d="M33.46,44.511c-1.86,0.68-5.57,2.38-8.25,5.83c-0.03,0.01-0.06,0.03-0.09,0.05c-2.06,1.64-7.03,2.22-8.98,1.39  c-0.25-0.11-0.54,0.01-0.65,0.26c-0.11,0.26,0.01,0.55,0.26,0.66c0.72,0.3,1.75,0.45,2.9,0.45c1.74,0,3.75-0.34,5.35-0.99  c-0.38,0.66-0.71,1.37-0.99,2.13c-0.37,1.01-0.6,2.08-0.7,3.18c-7.3,0.62-12.8-3-14.57-5.47c-0.65-0.9-0.89-1.71-0.65-2.22  c0.24-0.53,0.97-0.71,1.54-0.76c3.92-0.37,7.25-3.62,9.93-6.23c1.48-1.45,2.78-2.72,3.82-3.16  C24.82,42.571,28.53,44.211,33.46,44.511z"/></svg>