<?xml version="1.0" encoding="utf-8"?>

<!DOCTYPE svg PUBLIC "-//W3C//DTD SVG 1.1//EN" "http://www.w3.org/Graphics/SVG/1.1/DTD/svg11.dtd">
<!-- Uploaded to: SVG Repo, www.svgrepo.com, Generator: SVG Repo Mixer Tools -->
<svg height="800px" width="800px" version="1.1" id="_x32_" xmlns="http://www.w3.org/2000/svg" xmlns:xlink="http://www.w3.org/1999/xlink" 
	 viewBox="0 0 512 512"  xml:space="preserve">
<style type="text/css">
	.st0{fill:#000000;}
</style>
<g>
	<path class="st0" d="M266.002,187.41h-20.01c-12.995,0-23.523,10.535-23.523,23.531v44.714c0,12.996,10.528,23.537,23.523,23.537
		h20.01c12.996,0,23.524-10.541,23.524-23.537v-44.714C289.526,197.945,278.998,187.41,266.002,187.41z"/>
	<path class="st0" d="M227.752,407.991c0,40.636,17.972,40.636,28.245,40.636c10.26,0,28.231,0,28.231-40.636
		c0-40.638,0-118.211,0-118.211h-56.476C227.752,289.781,227.752,367.354,227.752,407.991z"/>
	<path class="st0" d="M192.466,102.655c3.246,0,6.277-0.791,8.973-2.179c10.689,14.893,19.286,30.961,25.536,44.265
		c3.983,8.489,7.014,15.859,9.053,21.089c1.019,2.622,1.784,4.708,2.294,6.122c0.255,0.711,0.442,1.254,0.563,1.623
		c0.067,0.18,0.121,0.315,0.148,0.402l0.027,0.1l0.013,0.034l7.806-2.609c-0.028-0.107-4.292-12.868-12.446-30.256
		c-6.465-13.76-15.357-30.404-26.609-46.002c2.682-3.359,4.292-7.604,4.292-12.231c0-10.85-8.798-19.642-19.648-19.642
		c-10.85,0-19.635,8.792-19.635,19.642C172.831,93.864,181.616,102.655,192.466,102.655z"/>
	<path class="st0" d="M272.922,174.079c0.228-0.65,4.507-13.277,12.473-30.129c6.21-13.15,14.693-28.875,25.167-43.473
		c2.682,1.388,5.726,2.179,8.972,2.179c10.836,0,19.635-8.791,19.635-19.641c0-10.85-8.798-19.642-19.635-19.642
		c-10.85,0-19.648,8.792-19.648,19.642c0,4.627,1.61,8.872,4.292,12.231c-11.259,15.598-20.151,32.242-26.616,46.002
		c-8.168,17.388-12.419,30.149-12.46,30.256l7.819,2.609V174.079z"/>
	<path class="st0" d="M207.943,300.369c0.698-0.054,1.556-0.1,2.508-0.141v-84.748l-2.508-3.366c0,0-98.79-127.076-149.874-123.548
		C26.725,90.725-17.184,151.172,6.97,222.703C30.816,293.308,61.73,311.649,207.943,300.369z"/>
	<path class="st0" d="M140.134,316.001c-28.782,0-51.675-2.374-70.317-7.443l-4.936,3.185
		c-71.537,70.598-21.512,144.523,44.272,134.143c55.752-8.798,99.702-69.419,106.005-79.698v-53.385
		c-0.496,0.013-5.552,0.04-5.766,0.06C182.045,314.968,159.393,316.001,140.134,316.001z"/>
	<path class="st0" d="M453.933,88.567c-51.098-3.528-149.875,123.548-149.875,123.548l-2.508,3.366v84.748
		c0.952,0.04,1.797,0.087,2.508,0.141c146.2,11.279,177.127-7.061,200.973-77.666C529.185,151.172,485.262,90.725,453.933,88.567z"
		/>
	<path class="st0" d="M442.184,308.557c-18.642,5.07-41.536,7.443-70.317,7.443c-19.259,0-41.911-1.032-69.257-3.139
		c-0.228-0.02-5.271-0.046-5.768-0.06v53.385c6.29,10.28,50.254,70.901,105.992,79.698c65.797,10.38,115.823-63.544,44.285-134.143
		L442.184,308.557z"/>
</g>
</svg>