<?xml version="1.0" encoding="iso-8859-1"?>
<!-- Uploaded to: SVG Repo, www.svgrepo.com, Generator: SVG Repo Mixer Tools -->
<!DOCTYPE svg PUBLIC "-//W3C//DTD SVG 1.1//EN" "http://www.w3.org/Graphics/SVG/1.1/DTD/svg11.dtd">
<svg fill="#000000" height="800px" width="800px" version="1.1" id="Capa_1" xmlns="http://www.w3.org/2000/svg" xmlns:xlink="http://www.w3.org/1999/xlink" 
	 viewBox="0 0 279.701 279.701" xml:space="preserve">
<path d="M227.879,72.688c2.56,0.999,3.772-8.64,10.08-11.476c13.801-6.203,25.992,3.114,33.046-0.621
	c5.272-2.792,6.823-8.218,7.133-10.389c0.31-2.171,1.706-3.877,1.55,1.24c-0.154,5.117,0.643,19.074-22.966,19.074
	c-9.32-0.386-11.295,1.159-11.94,4.032c-1.188,5.288,3.256,7.908,6.203,9.148c2.946,1.241,9.614,4.188,10.234,14.267
	c0.621,3.411,10.39,19.538,12.871,22.64c2.481,3.102,6.513,7.908,1.086,12.095c-2.327,1.861-4.808,2.171-4.808,2.171
	s-4.341,7.288-15.972-1.706c-5.583,0.31-20.159-1.551-28.688-6.668c-1.457-0.659-8.858-2.229-25.467,16.176
	c-3.256,3.567-4.677,9.91-10.336,16.983c-5.583,6.978-11.669,6.423-12.769,8.758c-3.722,7.909-1.533,16.95-2.445,20.73
	c-1.085,4.497-6.955,12.405-5.094,20.004c1.861,7.599,3.698,18.143,11.762,22.33c-6.513,0-21.089,0-21.089,0
	s-6.668-12.406-4.342-23.105c2.327-10.7-1.551-36.751-3.722-39.853c-2.171-3.101-14.111-3.101-34.58-4.497
	s-34.361-14.419-46.597-13.646c-3.253,0.206-9.924,2.326-18.763,17.212c-4.496,8.38-12.406,10.7-13.181,18.608
	c-0.775,7.908-3.061,33.991,10.854,45.281c-13.801,0.309-20.314,0-20.314,0s-4.187-14.112-2.481-30.705
	c1.706-16.592-4.187-24.19-3.256-31.013c0.931-6.823,7.908-12.095,6.513-24.035c-1.396-11.94-17.212-27.447-17.988-45.59
	c-0.62,8.994-2.636,25.121-1.551,44.039c2.791,8.684,12.515,10.882-1.396,41.869c0.155-8.218-9.769-12.561-9.46-23.26
	c0.311-10.7,5.583-12.871,5.738-18.608c0.155-5.737-0.465-42.488-0.465-42.488S5.973,86.04,15.657,78.068
	c9.177-7.556,22.652-11.344,44.052-11.034c21.4,0.31,29.282,11.339,43.245,9.578c13.179-1.662,27.542-5.321,44.29-8.577
	C163.991,64.778,198.106,61.059,227.879,72.688z"/>
</svg>