<?xml version="1.0" encoding="utf-8"?>

<!DOCTYPE svg PUBLIC "-//W3C//DTD SVG 1.1//EN" "http://www.w3.org/Graphics/SVG/1.1/DTD/svg11.dtd">
<!-- Uploaded to: SVG Repo, www.svgrepo.com, Generator: SVG Repo Mixer Tools -->
<svg height="800px" width="800px" version="1.1" id="_x32_" xmlns="http://www.w3.org/2000/svg" xmlns:xlink="http://www.w3.org/1999/xlink" 
	 viewBox="0 0 512 512"  xml:space="preserve">
<style type="text/css">
	.st0{fill:#000000;}
</style>
<g>
	<polygon class="st0" points="326.971,219.735 300.454,219.735 300.454,196.337 269.258,196.337 269.258,219.735 242.749,219.735 
		242.749,196.337 211.546,196.337 211.546,219.735 185.029,219.735 185.029,196.337 153.841,196.337 153.841,250.931 
		163.198,250.931 185.029,250.931 211.546,250.931 220.91,250.931 242.749,250.931 269.258,250.931 300.454,250.931 
		326.971,250.931 358.166,250.931 358.166,219.735 358.166,196.337 326.971,196.337 	"/>
	<path class="st0" d="M153.841,389.365h80.6v-47.22c0-12.439,10.089-22.528,22.536-22.528c12.446,0,22.536,10.09,22.536,22.528
		v47.22h78.652v-124.4H153.841V389.365z"/>
	<polygon class="st0" points="115.424,146.041 88.907,146.041 88.907,122.635 57.719,122.635 57.719,146.041 31.202,146.041 
		31.202,122.635 0,122.635 0,177.236 9.363,177.236 31.202,177.236 57.719,177.236 88.907,177.236 115.424,177.236 146.627,177.236 
		146.627,146.041 146.627,122.635 115.424,122.635 	"/>
	<path class="st0" d="M6.827,389.365H139.8V191.271H6.827V389.365z M61.614,225.643h23.398v44.453H61.614V225.643z"/>
	<polygon class="st0" points="480.804,122.635 480.804,146.041 454.288,146.041 454.288,122.635 423.093,122.635 423.093,146.041 
		396.576,146.041 396.576,122.635 365.38,122.635 365.38,177.236 374.744,177.236 396.576,177.236 423.093,177.236 454.288,177.236 
		480.804,177.236 512,177.236 512,146.041 512,122.635 	"/>
	<path class="st0" d="M372.201,389.365h132.972V191.271H372.201V389.365z M426.988,225.643h23.398v44.453h-23.398V225.643z"/>
</g>
</svg>