<?xml version="1.0" encoding="utf-8"?>

<!DOCTYPE svg PUBLIC "-//W3C//DTD SVG 1.1//EN" "http://www.w3.org/Graphics/SVG/1.1/DTD/svg11.dtd">
<!-- Uploaded to: SVG Repo, www.svgrepo.com, Generator: SVG Repo Mixer Tools -->
<svg height="800px" width="800px" version="1.1" id="_x32_" xmlns="http://www.w3.org/2000/svg" xmlns:xlink="http://www.w3.org/1999/xlink" 
	 viewBox="0 0 512 512"  xml:space="preserve">
<style type="text/css">
	.st0{fill:#000000;}
</style>
<g>
	<path class="st0" d="M408.656,245.78c0,0-17.264,20.567-39.233,33.783c-0.977-0.752-1.948-1.511-2.987-2.256
		c-34.83-25.237-97.33,1.901-137.499-1.983c-14.372-1.395-24.82-29.004-19.753-64.004c4.554-31.452,11.925-49.53-1.45-63.642
		c8.335-11.459,9.948-29.134,9.948-29.134c-26.713-6.31-37.428,15.118-37.428,15.118s-1.928,0.314-4.704,0.807
		c1.196-5.402,3.938-10.653,9.251-17.039c18.755-22.468,56.812-26.727,59.211-68.155c2.632-45.496-39.492-53.83-31.41-47.328
		c16.758,13.456,22.57,35.274,17.504,48.682c0,0-13.114-14.563-25.237-16.567c-3.008-0.499-3.746,3.214,0.356,5.176
		c45.878,21.982,3.248,52.709-11.118,46.207c-15.096-6.838-13.538-28.738-22.987-26.871c-9.442,1.873,18.728,37.058,4.793,54.022
		c-6.16,7.5-11.562,17.401-11.562,17.401c-1.169,2.338-1.798,4.786-2.085,7.241c-2.229,0.567-4.205,1.142-5.539,1.702
		c-13.442,5.593-23.808,17.483-27.69,33.516c-3.891,16.027-14.578,23.808-17.976,26.228c-1.942,0.492-3.891,0-7.774,3.406
		c-3.884,3.398-1.388,15.958,10.687,12.143c19.404,5.819,54.897-12.929,55.382-2.427c0,0-12.8,38.452-7.439,93.815
		c4.951,51.171,33.038,101.972,33.038,101.972s-18.905,75.505-27.904,80.9c-8.99,5.402-12.594,19.794-12.594,19.794
		c7.2,5.401,33.284,2.7,33.284,2.7l31.322-98.205l-0.924-48.702c0,0,48.443,5.402,77.228,1.805
		c28.792-3.604,43.287-3.118,43.287-3.118s26.802,57.16,21.449,67.874c-2.413,4.827-19.651,58.042-19.651,58.042
		s-10.714,9.819-12.498,20.539c0,0,20.184,6.25,33.578,0l0.888-14.29c0,0,29.92-68.825,24.471-82.15
		c-16.074-39.294,0.786-59.075,1.771-62.514c7.282-25.442,5.825-41.68-3.583-55.102C419.965,279.803,408.656,245.78,408.656,245.78z
		"/>
	<path class="st0" d="M152.091,420.809l-8.93-49.112l21.347-7.488c-3.439-9.962-6.694-20.901-9.204-32.313
		c-9.592,4.451-20.888,10.037-32.682,16.587c-8.369,4.65-6.892,12.766-5.36,17.852c5.053,16.848,17.852,62.508,17.852,62.508
		s3.576,21.435,16.075,26.788l11.617-25.892L152.091,420.809z"/>
	<path class="st0" d="M342.245,402.068c-0.834-2.592-1.395-5.231-1.75-7.884c-2.646-6.749-5.627-13.839-8.683-20.642
		c-4.554,0.143-11.466,0.506-20.649,1.381c1.662,10.228,3.665,20.047,5.169,25.36c6.229,21.9-14.14,77.296-18.481,79.949
		c-14.448,8.841-16.074,22.509-16.074,22.509s20.908,4.814,31.356,0.8c4.499-1.73,5.614-15.267,5.614-15.267
		S350.374,427.236,342.245,402.068z"/>
</g>
</svg>