<?xml version="1.0" encoding="utf-8"?>
<!-- Uploaded to: SVG Repo, www.svgrepo.com, Generator: SVG Repo Mixer Tools -->
<svg width="800px" height="800px" viewBox="0 0 1024 1024" fill="#000000" class="icon"  version="1.1" xmlns="http://www.w3.org/2000/svg"><path d="M166.38686 994.64729l-13.925472-139.937337c0-12.833278 16.382908-1.433504 37.066329-1.433505 20.546897 0 37.134591-11.399773 37.134591 1.433505l-11.60456 136.455969c0 29.830545-48.670889 17.679888-48.670888 3.481368z m-59.592828-455.513099C4.878693 493.057263 13.138409 420.562896 13.138409 420.562896c-12.833278 25.598293 14.471569 248.883674 120.755683 248.883674 47.510433 0.068262 87.44377-78.842744-27.10006-130.312379z m0-157.75375C4.878693 335.440037 13.138409 262.94567 13.138409 262.94567c-12.833278 25.530031 14.471569 248.883674 120.755683 248.883675 47.510433 0 87.44377-78.842744-27.10006-130.448904z m0-153.043663C4.878693 182.60116 13.138409 109.902007 13.138409 109.902007c-12.833278 25.598293 14.471569 248.815412 120.755683 248.815412 47.510433 0 87.44377-78.637957-27.10006-130.380641z m141.30258 441.178054c106.215852 0 133.452437-223.285381 120.755683-248.883674 0 0 8.259716 72.494367-93.792147 118.571295-114.407306 51.401373-74.610493 130.312379-26.963536 130.312379z m-141.30258 31.264049C4.878693 654.701953 13.138409 582.207586 13.138409 582.207586c-12.833278 25.598293 14.471569 248.883674 120.755683 248.883675 47.510433 0 87.44377-78.842744-27.10006-130.31238z m141.30258 130.31238c106.215852 0 133.452437-223.285381 120.755683-248.883675 0 0 8.259716 72.494367-93.792147 118.571295-114.407306 51.469635-74.610493 130.312379-26.963536 130.31238z m0-319.261916c106.215852 0 133.452437-223.353643 120.755683-248.883675 0 0 8.259716 72.494367-93.792147 118.434771-114.407306 51.60616-74.610493 130.448903-26.963536 130.448904z m0-153.111926c106.215852 0 133.452437-223.217119 120.755683-248.815412 0 0 8.259716 72.630891-93.792147 118.366508-114.407306 51.810946-74.610493 130.448903-26.963536 130.448904zM198.401792 240.282648C311.102545 240.282648 192.189939 0 192.189939 0c-14.335044 22.59476-106.488901 240.282648 6.211853 240.282648zM503.055615 1013.419372l67.989067-118.980868c5.392707-11.468035-14.403306-8.327978-32.970602-16.860743-18.840344-8.737551-28.943137-26.007866-34.267582-14.335044l-46.349976 132.633291c-6.007066 12.969802 32.970602 44.438637 45.599093 17.543364z m92.222118-455.649623c-72.90394-84.713286-34.950203-146.968335-34.950203-146.968336-22.458236 17.74815-91.607759 231.886408 4.573562 276.598094 43.141657 20.069062 112.632491-34.608893 30.376641-129.629758z m66.487301-143.213919c-72.90394-84.508499-34.950203-146.763549-34.950203-146.763549-22.458236 17.74815-91.744284 231.818145 4.5053 276.666355 43.209919 20.0008 112.632491-34.540631 30.444903-129.902806z m64.5077-138.640358C653.095746 191.543497 691.32253 129.015399 691.32253 129.015399c-22.526498 17.74815-91.744284 231.749883 4.573562 276.598093 43.141657 19.932538 112.495967-34.472369 30.376642-129.69802z m-57.613226 459.745351c96.317845 44.575162 215.093927-146.285714 214.274782-174.955803 0 0-23.004333 69.286048-134.954203 67.989067-125.534031-1.365242-122.530498 86.761149-79.320579 106.966736z m-141.370842-31.400574c-73.040464-84.645024-35.086728-146.831811-35.086727-146.831811-22.389974 17.74815-91.607759 231.818145 4.641823 276.393307 43.278181 20.069062 112.564229-34.472369 30.444904-129.561496z m73.24525 177.822812c96.249583 44.779948 215.093927-146.285714 214.343044-174.887541 0 0-23.072595 69.286048-134.954203 67.989068-125.534031-1.29698-122.530498 86.897673-79.388841 106.898473z m134.544631-289.499633c96.317845 44.711686 215.093927-146.422239 214.274781-174.887541 0 0-23.004333 69.217785-134.88594 67.989067-125.602293-1.365242-122.59876 86.965936-79.388841 106.898474z m64.507699-138.913406c96.317845 44.84821 215.025665-146.14919 214.20652-174.819279 0 0-23.140857 69.490834-134.885941 67.989068-125.534031-1.29698-122.462236 86.897673-79.320579 106.830211z m4.710086-128.40104c102.188387 47.442171 95.566962-220.486634 95.566962-220.486634-22.458236 14.608093-197.687088 172.976202-95.566962 220.486634z" /></svg>