<?xml version="1.0" ?>

<!-- Uploaded to: SVG Repo, www.svgrepo.com, Generator: SVG Repo Mixer Tools -->
<svg width="800px" height="800px" viewBox="-52.05 0 684.34 684.34" id="Layer_1" version="1.1" xml:space="preserve" xmlns="http://www.w3.org/2000/svg" xmlns:xlink="http://www.w3.org/1999/xlink">

<style type="text/css">
	.st0{clip-path:url(#SVGID_2_);}
	.st1{clip-path:url(#SVGID_4_);}
	.st2{clip-path:url(#SVGID_6_);}
	.st3{clip-path:url(#SVGID_8_);}
	.st4{clip-path:url(#SVGID_10_);}
	.st5{clip-path:url(#SVGID_12_);}
	.st6{clip-path:url(#SVGID_14_);}
	.st7{clip-path:url(#SVGID_16_);}
	.st8{clip-path:url(#SVGID_18_);}
	.st9{clip-path:url(#SVGID_20_);}
	.st10{clip-path:url(#SVGID_22_);}
	.st11{clip-path:url(#SVGID_24_);}
	.st12{clip-path:url(#SVGID_26_);}
	.st13{clip-path:url(#SVGID_28_);}
	.st14{clip-path:url(#SVGID_30_);}
	.st15{clip-path:url(#SVGID_32_);}
	.st16{clip-path:url(#SVGID_34_);}
	.st17{clip-path:url(#SVGID_36_);}
	.st18{clip-path:url(#SVGID_38_);}
	.st19{clip-path:url(#SVGID_40_);}
</style>

<g>

<defs>

<rect height="684.34" id="SVGID_13_" width="580.24" y="0"/>

</defs>

<clipPath id="SVGID_2_">

<use style="overflow:visible;" xlink:href="#SVGID_13_"/>

</clipPath>

<g class="st0">

<path d="M470.85,651.84c-2.02,0.64-3.99,1.6-6.06,1.86c-8.85,1.13-17.72,2.31-26.61,2.98c-12.08,0.9-24.18,1.76-36.29,1.93    c-47.68,0.68-95.37,1.83-143.04,1.38c-42.79-0.4-85.56-2.63-128.34-4.17c-5.11-0.18-10.2-1.07-15.29-1.72    c-0.82-0.1-1.58-0.66-2.63-1.13c1.7-1.73,3.16-3.22,4.89-4.98c-0.72-1.73-1.51-3.63-2.29-5.53c0.12-0.04,0.24-0.08,0.36-0.13    c2.04,2.51,4.08,5.01,6.12,7.52c0.36-0.25,0.72-0.49,1.08-0.74c-1.65-4.9-4.59-9.07-8.09-13.03    c-11.18-12.64-24.12-23.45-37.82-33.49c-1.2-0.88-2.32-1.84-3.26-3.01c18.38,9.82,33.6,23.28,47.97,37.78    c-7.95-13.98-20.07-24.34-32.52-34.43c0.27-0.3,0.54-0.59,0.8-0.89c5.59,4.38,11.39,8.53,16.7,13.19    c5.35,4.69,10.22,9.89,16.09,14.37c-4.15-6.15-8.29-12.3-12.44-18.45c0.46-0.28,0.91-0.56,1.37-0.84    c6.62,9.54,13.24,19.08,19.86,28.62c0.35-0.12,0.7-0.23,1.04-0.35c-0.46-4.87,0.16-10.16-1.69-14.49    c-1.89-4.4-6.21-7.86-9.34-12.1c3.29,2.35,6.58,4.71,9.59,6.87c2.35-15.29-6.94-27.34-13.73-40.14c0.32-0.14,0.63-0.27,0.95-0.41    c4.13,5.99,8.26,11.97,12.39,17.96c0.2-0.07,0.4-0.14,0.59-0.21c-1.59-4.85-2.85-9.83-4.92-14.49c-0.99-2.22-3.19-4.32-5.4-5.6    c-17.11-9.88-34.67-19.05-54.41-23.17c-12.03-2.51-24.34-3.82-36.33-5.64c35.7-2.62,67.44,9.41,98.25,25.56    c0.08-1.43,0.17-2.89,0.28-4.8c0.85,0.68,1.43,1.14,3.01,2.4c-0.73-3.29-1.27-5.7-1.84-8.26c0.96,1.23,1.9,2.41,3.13,3.98    c1.78-8.49,3.45-16.52,5.28-25.26c-5.09-5.51-10.48-11.36-15.88-17.21c0.23-0.24,0.45-0.47,0.68-0.71    c5.48,4.52,10.96,9.03,16.62,13.69c6.19-22.53,13.82-44.56,25.37-65.49c-9.36-5.14-19.34-6.17-29.83-5.13    c4.43-4.38,19.6-6.32,32.73-0.24c1.91-3.94,3.81-7.87,5.59-11.55c-8.66-18.7-23.06-33.03-36.88-47.76    c0.29-0.27,0.57-0.54,0.86-0.81c6.64,5.93,13.57,11.6,19.85,17.86c6.33,6.3,12.02,13.18,18.82,20.73    c0.59-3.59,1.62-6.57,1.45-9.48c-0.72-12.9-1.77-25.78-2.72-38.67c-0.26-3.49-0.61-6.98-0.02-10.69    c2.21,8.25,4.42,16.5,6.76,25.24c2.69-8.68,5.22-16.82,7.75-24.97c0.37,0.08,0.75,0.17,1.12,0.25c-1.24,6.6-3.01,13.15-3.62,19.8    c-1.25,13.59-2.43,27.24-2.5,40.86c-0.03,5.79,2.79,11.6,4.33,17.47c9.26,1.55,17.27,4.77,24.41,10.59    c-1.85-6.25-3.45-12.57-5.6-18.72c-2.2-6.27-4.74-12.45-7.48-18.53c-2.73-6.05-5.9-11.93-8.88-17.88    c0.33-0.17,0.65-0.34,0.98-0.51c5.36,8.96,10.73,17.93,16.52,27.61c-3.44-13.49-6.47-26.27-9.97-38.93    c-3.75-13.53-7.58-27.06-12.12-40.36c-1.66-4.86-5.12-9.3-8.39-13.49c-17.99-23.05-39.86-41.26-69.56-49.38    c-3.9-1.07-7.88-1.9-11.73-3.06c18.53,1.51,34.99,8.39,50.19,18.22c15.29,9.89,28.01,22.33,39.46,36.71c0-4.3,0-8.59,0-12.89    c0.37,0,0.74-0.01,1.11-0.01c0.87,5.76,1.72,11.53,2.63,17.28c0.19,1.23,0.36,2.55,0.96,3.62c9.3,16.48,14.3,34.4,18.74,52.39    c6.4,25.92,12.42,51.95,17.78,78.09c2.08,10.17,2.64,20.62,6.84,30.35c0.97,2.25,2.12,4.43,3.52,7.32c0-6.82,0.2-12.76-0.03-18.69    c-1.16-29.66-10.17-57.91-18.2-86.22c-5.97-21.06-13.96-41.61-21.14-62.36c-7.59-21.95-11.1-44.53-11.71-67.58    c-0.03-1.24,0-2.48,0.81-3.81c0.96,5.95,1.9,11.9,2.89,17.85c4.28,25.78,12.06,50.65,20.68,75.39    c8.18,23.47,14.91,47.4,22.28,71.12c0.33,1.07,0.71,2.12,1.32,3.96c-2.4-31.29-4.74-61.75-6.96-90.77    c-3.09-3.46-5.77-5.71-7.47-8.5c-5.62-9.18-10.9-18.56-16.27-27.88c-0.34-0.59-0.42-1.32-0.9-2.91    c7.9,7.03,15.06,13.41,22.22,19.78c0.23-0.18,0.47-0.35,0.7-0.53c-1.59-6.95-3.18-13.91-4.85-21.18    c-3.69,1.65-6.56,0.09-8.86-2.21c-8.15-8.12-13.38-18.08-18.67-28.16c8.81,5.74,17.62,11.47,26.33,17.15    c-1.71-4.78-3.55-9.92-5.57-15.54c-1.6,1.3-2.47,2.01-3.95,3.23c-1.9-0.72-4.8-0.99-6.25-2.52c-5.55-5.84-9.56-12.67-12.06-20.33    c1.74,1.95,3.47,3.91,5.21,5.86c0.3-0.16,0.61-0.32,0.91-0.48c-3.3-6.47-6.6-12.93-9.9-19.4c0.21-0.21,0.43-0.43,0.64-0.64    c2.29,2.02,4.59,4.04,6.88,6.06c0.19-0.11,0.38-0.22,0.57-0.33c-4.43-6.76-8.85-13.51-13.84-21.13c2.59,1.28,4.45,2.2,7.35,3.63    c-3.32-4.24-6-7.66-8.78-11.22c0.76-0.09,1.8-0.22,3.54-0.43c-1.97-2.25-3.71-4.24-5.6-6.39c0.93-0.13,1.78-0.25,2.95-0.42    c-1.14-1.17-2.16-2.21-3.36-3.43c1.05-0.08,1.9-0.14,3.05-0.22c-2.11-1.9-3.97-3.58-5.83-5.26c0.09-0.21,0.19-0.43,0.28-0.64    c1.09,0.33,2.19,0.65,2.99,0.89c-1.66-3.53-3.38-7.2-5.1-10.87c0.36-0.18,0.72-0.36,1.09-0.54c2.11,3.65,4.22,7.29,6.78,11.72    c0-1.83,0-2.75,0-4.7c1.55,2.94,2.65,5.02,3.74,7.1c0.24-0.18,0.48-0.36,0.72-0.54c0.43,2.02,0.85,4.05,1.39,6.59    c0.63-1.43,1.05-2.38,1.82-4.11c1.76,4.81,3.26,8.93,5.01,13.71c0-2.49,0-4.31,0-6.13c0.25-0.06,0.5-0.11,0.75-0.17    c1.26,3.64,2.51,7.28,3.84,11.12c0.25-0.87,0.47-1.64,0.7-2.41c0.24-0.06,0.48-0.11,0.72-0.17c0.81,3.5,1.62,6.99,2.69,11.59    c0.89-3.02,1.51-5.15,2.14-7.27c0.21-0.02,0.43-0.03,0.64-0.05c0.94,9.02,1.89,18.05,2.83,27.07c0.15,0,0.31,0.01,0.46,0.01    c0.67-2.95,1.34-5.91,2-8.86c0.2-0.02,0.4-0.03,0.59-0.05c1.34,6.35,2.61,12.72,4.06,19.06c0.64,2.79,1.75,5.48,2.44,8.26    c0.31,1.26,0.01,2.64,0.21,3.94c0.35,2.38,0.86,4.73,1.31,7.1c0.6-0.11,1.2-0.21,1.79-0.32c-1.52-9.43-3.03-18.85-4.6-28.61    c5.92,8.06,11.71,15.96,17.51,23.86c0.36-0.16,0.71-0.33,1.07-0.49c0.97-11.93,1.93-23.85,2.91-35.92    c-6.26,1.01-9.26-0.02-10.87-5.33c-2.37-7.77-3.9-15.8-5.39-23.78c-1.31-7.01-2.09-14.11-3.13-21.38c-4.9,1.2-7.87-0.71-9.55-4.47    c-3.37-7.57-6.56-15.2-9.19-23.15c5.45,5,10.89,10,16.34,14.99c0.35-0.24,0.7-0.47,1.05-0.71c-0.74-2.33-1.49-4.66-2.23-6.99    c-0.32,0.28-0.65,0.56-0.97,0.84c-2.21-1.88-5.12-3.39-6.5-5.72c-4.06-6.8-7.51-13.93-10.52-21.42c1.9,2.04,3.8,4.08,5.7,6.12    c0.31-0.24,0.62-0.48,0.93-0.72c-2.44-4.17-4.88-8.34-7.66-13.1c1.43,0.27,2.22,0.41,3.44,0.64c-1.84-2.34-3.49-4.45-5.23-6.67    c0.19-1.15,0.39-2.42,0.58-3.61c-1.04-0.92-1.91-1.68-3.17-2.8c1.2-0.22,2.07-0.39,3.02-0.56c-0.65-1.51-1.27-2.96-1.89-4.4    c-1.13-0.76-2.25-1.52-3.38-2.29c0.1-0.22,0.2-0.44,0.3-0.66c1.55,0.42,3.1,0.84,4.71,1.28c-1.59-2.95-3.14-5.84-4.7-8.73    c0.33-0.18,0.67-0.36,1-0.54c2.28,3.54,4.57,7.08,6.84,10.61c-0.1-0.84-0.2-1.74-0.43-3.73c1.55,2.73,2.55,4.51,3.63,6.41    c0.82-0.27,1.51-0.5,2.63-0.86c1.03,3.67,2.04,7.3,3.09,11.05c0.42-1.64,0.81-3.19,1.21-4.75c0.24-0.04,0.48-0.09,0.72-0.13    c1.37,6.69,2.74,13.39,4.24,20.72c0.31-2.01,0.53-3.44,0.75-4.86c0.27,0,0.55-0.01,0.82-0.01c0.28,3.1,0.57,6.2,0.85,9.31    c0.18,0.02,0.36,0.04,0.54,0.05c0.34-1.3,0.69-2.59,1.03-3.89c1.53,7.45,5.76,14.71,1.28,24.42c0.6,3.64,1.56,9.31,2.46,14.99    c0.45,2.85,0.93,5.71,1.15,8.58c0.79,10.1,5.81,18.26,12.66,25.63c1.8,1.93,3.42,4.02,5.21,6.14c0-5.31,0-10.44,0-15.51    c-8.52-1.13-12.73-7.47-10.38-15.05c0.92-2.99,3.22-4.65,6.38-4.78c3.76-0.16,6.69,1.54,8.17,4.85c0.85,1.91,1.06,4.09,1.54,6.09    c2.73-3.74,4.13-16.18,1.9-18.74c-1.33,0.64-2.63,1.54-4.08,1.93c-3.23,0.86-6.98-1.37-7.41-5.1c-1.12-9.64-1.73-19.33-2.55-29    c0.44-0.08,0.89-0.17,1.33-0.25c2.7,4.22,5.36,8.46,8.12,12.64c0.68,1.03,1.5,2.3,2.57,2.7c4.81,1.81,6.58,5.42,7.54,9.97    c0.74-5.79,1.47-11.58,2.2-17.32c-3.14-0.17-5.68,0.28-7.65-0.53c-3.7-1.52-4.78-5.1-4.47-8.54c0.54-5.96,1.68-11.87,3.39-17.89    c1,1.98,2,3.96,3.12,6.18c6.7,0.28,7.72,5.57,9.58,11.15c0.91-5.96,1.69-11.09,2.46-16.14c-8.3-2.69-9.38-4.01-9.27-12.31    c0.07-5.56,0.56-11.12,0.86-16.68c0.37-0.02,0.75-0.05,1.12-0.07c0.72,1.26,1.44,2.51,2.02,3.51c0-8.86,0-17.96,0-28.06    c2.11,5.68,3.91,10.5,5.7,15.32c-1.3-10.18,0.57-20.05,3.04-30.92c1.35,3.7,2.34,6.39,3.53,9.64c1.83-7.54,3.55-14.63,5.27-21.73    c0.4,0.04,0.8,0.07,1.2,0.11c0.64,3.07,1.29,6.15,2,9.54c2.15-7.02,4.22-13.76,6.29-20.49c0.34,0.05,0.67,0.1,1.01,0.15    c0.39,2.88,0.78,5.76,1.33,9.78c2.44-7.05,4.55-13.14,6.65-19.23c0.35,0.05,0.71,0.1,1.06,0.15c0,3.18,0,6.37,0,10.54    c3.58-7.09,6.73-13.33,9.87-19.56c0.34,0.11,0.68,0.23,1.03,0.34c-0.73,3.52-1.46,7.05-2.23,10.76c1.38-0.78,2.55-1.45,3.79-2.33    c0.06-0.21,0.01-0.14,0.01-0.14c3.45-0.8,6.76-3.02,10.83-0.92c-5.84,3.49-11.47,6.85-17.1,10.21c0.13,0.17,0.26,0.35,0.39,0.52    c4.06-0.35,8.11-0.69,12.26-1.05c-8.06,5.6-15.61,10.85-23.15,16.09c0.25,0.4,0.49,0.81,0.74,1.21    c4.95-2.88,10.02-5.29,16.98-4.09c-12.19,5.58-19.28,14.98-25.97,24.78c5.11-4.22,10.29-8.09,18.45-8.07    c-12.35,9.09-18.73,21.25-24.84,33.65c6.08-6.53,10.77-14.39,21.07-18.18c-9.12,11.47-14.21,23.61-17.6,36.66    c4.12-3.73,8.24-7.45,12.42-11.23c0.31,0.45,0.57,0.69,0.52,0.78c-4.4,8.22-8.48,16.62-13.38,24.56    c-3.21,5.2-7.85,5.53-13.32,1.92c-1.59,6.71-3.15,13.32-4.88,20.59c7.66-10.46,20.34-10.23,29.91-15.75    c0.32,0.32,0.64,0.63,0.95,0.95c-5.58,7.47-10.96,15.1-16.85,22.34c-2.16,2.65-5.68,4.04-9.96,3.2c-0.55-1.14-1.19-2.45-2.14-4.4    c-1.24,1.53-2.98,2.82-3.52,4.47c-2.29,7.01-4.23,14.13-6.49,21.84c10.09-9.4,23.86-11.25,35-18.16c-1.9,2.75-3.78,5.52-5.72,8.25    c-4.2,5.91-8.28,11.91-12.73,17.64c-1.75,2.25-4.11,4.31-6.64,5.74c-4.14,2.34-7.09,1.1-8.98-3.58    c-5.75,9.66-5.48,20.14-7.15,30.44c9.76-6.03,19.21-11.86,28.66-17.69c0.21,0.17,0.42,0.33,0.63,0.5c-1,1.63-1.96,3.27-2.99,4.88    c-5.01,7.79-9.92,15.64-15.11,23.32c-2.37,3.51-5.65,5.98-10.72,4.64c-3.73,3.46-4.46,8.18-4.92,12.68    c-1.35,13.23-3.17,26.5-3.13,39.76c0.09,32.11,1.09,64.23,1.83,96.34c0.2,8.64,0.75,17.28,1.12,25.38    c3.57-32.28,7.2-65.04,10.83-97.8c0.49,0.03,0.98,0.07,1.47,0.1c-2.12,35.61-7.86,71.05-6.73,106.81    c5.6-25.07,14.33-49.04,26.01-72.07c0.84-1.65,1.08-3.86,0.8-5.69c-5.1-32.74-13.95-64.67-22.99-96.56    c-0.35-1.25-0.56-2.53-0.42-3.89c13.37,30.91,22.95,62.93,31.38,95.23c6.24-9.7,12.4-19.28,18.2-28.31    c-2.31-1.97-5.58-3.68-7.05-6.3c-1.5-2.68-1.59-6.25-1.67-9.44c-0.11-4.01,2.44-6.74,5.99-7.29c3.6-0.56,7.69,1.83,8.92,5.42    c0.52,1.52,0.72,3.18,0.87,4.79c0.14,1.61,0.03,3.24,0.03,5.36c3.32-9.83,3.43-20.02,0.42-24.43c-6.89,3.3-12.41,0.69-13.25-6.84    c-0.65-5.83-0.34-11.77-0.29-17.66c0.03-3.63,0.37-7.26,0.63-12.09c2.53,5.17,4.54,9.4,6.69,13.57c0.61,1.18,1.4,2.64,2.52,3.15    c5.09,2.31,6.85,6.27,6.93,11.29c0.02,1.37,0.29,2.74,0.46,4.19c2.64-3.86,5.08-20.22,3.65-24.13c-7.1,1.54-10.57-0.01-11.19-6.75    c-0.96-10.46-0.79-21.01-1.06-31.53c-0.01-0.57,0.39-1.16,0.84-2.37c1.67,4.07,3.11,7.57,4.55,11.08    c0.12-0.05,0.25-0.09,0.37-0.14c-0.9-12.51-1.8-25.03-2.7-37.54c0.32-0.1,0.64-0.2,0.95-0.31c2.13,4.45,4.26,8.91,6.32,13.22    c0.86-9.76,1.73-19.71,2.6-29.65c0.46-0.02,0.92-0.04,1.39-0.07c0.81,2.7,1.62,5.4,2.72,9.07c0.99-6.58,1.82-12.17,2.66-17.76    c0.33,0,0.65,0.01,0.98,0.01c0.73,2.14,1.46,4.28,2.32,6.78c1.21-5.8,2.31-11.13,3.42-16.45c0.32,0.02,0.64,0.05,0.96,0.07    c0.54,2.24,1.09,4.48,1.84,7.6c1.74-6.82,3.23-12.69,4.73-18.56c0.39,0.02,0.79,0.05,1.18,0.07c0.43,3.08,0.85,6.17,1.27,9.18    c2.94-7.37,5.92-14.86,8.91-22.36c0.51,0.15,1.01,0.3,1.52,0.45c-0.83,3.67-1.67,7.34-2.5,11c0.12,0.05,0.25,0.11,0.37,0.16    c3.01-6.01,6.03-12.02,9.46-18.86c0,2.49,0,4.05,0,6.2c2.17-1.41,3.81-2.83,5.73-3.61c1.98-0.8,4.23-0.97,6.73-0.62    c-5.02,3.33-10.03,6.66-15.86,10.52c4.58-0.54,7.92-0.93,11.26-1.32c0.01,0.28,0.02,0.56,0.03,0.83    c-4.7,2.96-9.39,5.92-14.09,8.88c0.14,0.21,0.28,0.42,0.42,0.62c3.14-0.18,6.28-0.37,9.42-0.55c0.06,0.21,0.12,0.42,0.19,0.63    c-4.8,3.01-9.6,6.02-14.65,9.19c4.3,0,8.05,0,11.79,0c0.03,0.22,0.05,0.44,0.08,0.65c-4.24,1.71-8.47,3.41-12.71,5.12    c0.11,0.33,0.22,0.67,0.33,1c2.42-0.21,4.83-0.41,8.39-0.72c-5.46,4.39-9.95,7.99-14.65,11.76c4.39-0.72,8.21-1.35,12.54-2.06    c-6.29,5.08-11.84,9.55-17.39,14.03c0.24,0.27,0.48,0.54,0.73,0.8c10.05-3.75,10.05-3.75,13.92-3c-10.87,6.8-17,17-23.06,27.32    c1.79-1.94,3.51-3.96,5.41-5.81c1.92-1.88,3.84-3.84,6.09-5.31c2.27-1.48,4.93-2.4,7.71-3.13    c-10.07,11.24-16.63,24.08-21.51,38.01c2.37-2.62,4.75-5.23,7.12-7.85c0.26,0.22,0.53,0.45,0.79,0.67    c-2.01,6.64-4.03,13.28-6.04,19.92c0.5,0.21,1,0.41,1.5,0.62c1.54-2.75,3.33-5.41,4.54-8.29c1.17-2.78,1.75-5.79,2.58-8.7    c0.34,0.04,0.67,0.09,1.01,0.13c0.49,1.04,0.98,2.08,1.69,3.59c0.84-5.72,1.59-10.88,2.35-16.04c0.21-0.08,0.43-0.17,0.64-0.25    c0.57,1.49,1.14,2.98,1.67,4.33c1.59-3.94,3.27-8.12,4.96-12.29c0.38,0.11,0.77,0.23,1.15,0.34c-0.26,2.32-0.52,4.64-0.78,6.96    c0.15,0.04,0.3,0.09,0.45,0.13c1.9-4.92,3.8-9.84,5.7-14.76c0.24,0.05,0.48,0.1,0.71,0.16c-0.26,1.84-0.51,3.68-0.77,5.52    c0.18,0.08,0.37,0.15,0.55,0.23c1.91-3.61,3.83-7.22,5.74-10.83c0.37,0.15,0.73,0.29,1.1,0.44c-0.97,2.7-1.93,5.4-2.9,8.1    c1.96-0.91,4.05-1.88,6.14-2.85c0.25,0.3,0.51,0.6,0.76,0.9c-2.22,1.76-4.45,3.52-6.56,5.18c0,1.72,0,3.06,0,4.64    c1.63-0.14,3.09-0.26,4.17-0.36c-3.48,2.48-7.13,5.07-10.77,7.67c0.16,0.17,0.32,0.34,0.48,0.51c2.37-0.55,4.74-1.1,7.1-1.66    c-0.3-0.11-0.61-0.22-0.91-0.33c-3.28,3.59-6.57,7.18-9.85,10.77c0.22,0.27,0.44,0.53,0.66,0.8c1.53-0.56,3.07-1.13,5.21-1.91    c-3.5,6.19-6.78,11.97-10.05,17.74c0.26,0.25,0.53,0.5,0.79,0.75c1.6-1,3.2-2.01,5.75-3.61c-0.84,1.74-1.1,2.63-1.64,3.34    c-2.48,3.24-4.75,6.68-7.65,9.56c-2.2,2.18-4.99,4.16-7.91,5.26c-4.69,1.77-7.34,0.1-8.73-4.93c-7.35,4.13-6.4,11.51-8.53,18.1    c8.5-7.17,19.38-6.42,29.12-9.53c-5.36,7.23-10.4,14.7-16.19,21.6c-4.36,5.2-8.74,4.57-12.73-1.06    c-4.41,7.26-4.41,15.38-6.04,24.06c14.76-13.71,32.7-20.76,50.51-28.2c-8.83,7.66-17.67,15.33-26.01,22.56    c-12.92,46.08-26.13,91.46-17.93,138.18c2.48-5.19,5.2-11.66,8.6-17.79c3.42-6.19,7.5-12.04,11.68-18.68    c-2.07-15.06-4.24-30.9-6.42-46.75c0.39-0.09,0.78-0.18,1.17-0.28c3.89,14.44,7.77,28.89,11.66,43.32    c3.86-2.7,7.88-5.5,12.41-8.67c1.63-32.65,7.89-65.03,14.78-97.8c-7.57-0.54-7.9-5.27-8.07-10.25c-0.3-9.4-0.76-18.79-0.72-28.42    c3.87,8.33,7.74,16.66,11.9,25.62c2.89-16.32,5.68-32.11,8.6-48.63c-4.82,1.5-8.46,1.61-10.67-2.35c-2-3.59-1.62-11.67,1.34-13.91    c1.91-1.44,5.29-2.56,7.39-1.94c2.09,0.62,3.66,3.45,4.95,5.6c0.68,1.13,0.26,2.85,0.67,4.34c1.38-6.27,5.91-12.11,3.1-19.64    c-1.3,0.79-1.9,1.16-2.5,1.52c-5.57,3.35-10.54,1.25-10.79-4.98c-0.2-4.85,0.56-9.75,0.96-14.62c0.48-5.86,1.02-11.72,2.41-17.84    c2.55,5.99,5.09,11.98,7.61,17.91c6.55,2.93,7.68,5.73,6.1,15c0.33,0.1,0.66,0.19,0.99,0.29c2.39-7.4,4.79-14.81,7.01-21.67    c-2.91-1.17-5.89-1.53-7.23-3.13c-1.44-1.72-2.15-4.73-1.76-6.96c1.4-8.02,3.4-15.95,5.17-23.91c0.49,0.03,0.99,0.06,1.48,0.09    c0.7,2.59,1.41,5.17,2.11,7.76c0.25,0.07,0.51,0.13,0.76,0.2c0.35-1.12,0.86-2.22,1.01-3.36c1.08-8.17,2.09-16.34,3.13-24.52    c0.4,0,0.8,0,1.2,0.01c0.75,3.05,1.49,6.11,2.52,10.3c1.93-8.63,3.62-16.16,5.31-23.7c0.28,0,0.56,0.01,0.85,0.01    c0.88,3.76,1.75,7.52,2.71,11.62c1.57-5.6,3.03-10.8,4.49-15.99c0.4,0.04,0.79,0.08,1.19,0.12c0.53,2.74,1.06,5.49,1.61,8.36    c2.55-7.09,5.09-14.13,7.63-21.17c0.49,0.09,0.97,0.18,1.46,0.27c0.21,3.51,0.41,7.01,0.65,11.02c2.89-6.78,5.65-13.27,8.41-19.77    c0.41,0.1,0.83,0.21,1.24,0.31c-0.19,3.28-0.38,6.57-0.62,10.83c3.28-6.86,6.18-12.93,9.09-18.99c0.39,0.09,0.78,0.17,1.16,0.26    c-0.36,3.06-0.71,6.11-1.14,9.73c3.89-6.74,7.58-13.13,11.28-19.52c0.28,0.09,0.56,0.18,0.83,0.27c-0.26,2-0.53,4.01-0.79,6.02    c4.69-5.42,9.35-10.81,14.45-16.71c-0.15,4.91-4.14,11.17-9.39,15.46c-3.02,2.47-6.08,4.9-8.75,7.79    c2.15-0.95,4.22-2.25,6.48-2.75c2.09-0.47,4.4-0.1,6.61-0.1c0.07,0.36,0.13,0.73,0.2,1.09c-4.93,2.29-9.86,4.58-14.8,6.87    c0.07,0.22,0.14,0.44,0.21,0.67c2.61,0.13,5.22,0.26,7.84,0.39c0.04,0.24,0.07,0.49,0.11,0.73c-4.63,1.91-9.25,3.83-13.88,5.74    c0.11,0.23,0.21,0.46,0.32,0.68c3.81,0,7.62,0,11.43,0c0.05,0.29,0.1,0.57,0.16,0.86c-3.18,1.34-6.44,2.53-9.51,4.06    c-3,1.49-5.8,3.34-9.32,5.4c5.16-0.54,9.52-0.99,13.87-1.45c0.11,0.32,0.22,0.64,0.33,0.96c-8.44,4.32-16.85,8.68-23.46,15.52    c5.63-1.39,11.07-2.73,16.5-4.07c0.22,0.46,0.44,0.91,0.66,1.37c-13.92,6.69-23.25,17.93-32.65,29.24    c7.38-5.28,13.9-12,24.83-12.23c-10.66,8.45-18.52,18.19-23.76,29.88c3.58-1.9,7.16-3.8,11.26-5.97    c-1.95,5.59-11.77,15.4-16.64,17.08c-3.61,1.24-6.77,1.03-8.75-2.71c-5.9,3.88-5.86,10.34-8.49,16.51    c9.33-9.39,22-7.45,32.33-11.91c0.2,0.31,0.41,0.63,0.61,0.94c-7.01,7.52-13.96,15.09-21.09,22.52c-1.07,1.12-2.87,1.79-4.46,2.22    c-3.9,1.04-5.77-0.31-6.89-4.88c-6.88,5.36-8.5,12.92-10.68,20.39c11.79-7.94,26.23-7.04,38.38-11.83    c-5.99,5.97-12.08,12.1-18.24,18.17c-2.01,1.98-4.1,3.93-6.37,5.63c-1.94,1.45-4.07,2.85-6.35,3.66    c-4.54,1.62-6.21,0.71-8.59-4.18c-6.53,9.2-7.09,19.85-9.49,28.92c11.39-5.77,23.32-11.81,35.26-17.87    c0.18,0.38,0.39,0.66,0.32,0.73c-7.49,9.06-14.95,18.14-22.55,27.13c-3.26,3.86-7.23,6.27-13.56,3.49    c-1.06,3.47-2.41,6.68-3.02,10.02c-4.46,24.75-6.87,49.71-8,74.78c-0.89,19.68-1.62,39.37-2.41,59.06    c-0.06,1.48-0.01,2.96,0.77,4.76c0.61-0.95,1.49-1.84,1.78-2.87c5.11-18.09,10.15-36.19,15.2-54.29    c-0.37,0.06-0.75,0.12-1.12,0.18c-1.01-2-3.04-4.08-2.86-5.97c0.67-7.18,2.06-14.29,3.63-21.42c2.34,4.29,1.62,9.74,6.89,12.86    c0.46-2.12,0.88-4.1,1.35-6.24c-3.74-2.4-4.14-5.81-3.64-9.65c0.78-5.92,1.31-11.87,1.95-17.81c0.34-0.04,0.68-0.09,1.02-0.13    c0.96,2.79,1.92,5.57,3.21,9.3c0.51-7.98,0.95-14.89,1.39-21.8c0.38-0.04,0.76-0.08,1.14-0.12c0.69,2.24,1.37,4.48,2.14,6.97    c1.3-5.69,2.53-11.05,3.76-16.42c0.47,0.06,0.93,0.12,1.4,0.19c0.1,1.55,0.19,3.11,0.34,5.62c1.64-4.92,2.99-9,4.35-13.09    c0.23,0.04,0.46,0.07,0.69,0.11c0.1,1.4,0.2,2.79,0.33,4.66c1.34-3.01,2.5-5.63,3.88-8.73c0.52,1.16,0.78,1.74,1.09,2.42    c1.14-2.5,2.2-4.85,3.27-7.19c0.23,0.07,0.46,0.13,0.69,0.2c-0.14,1.38-0.28,2.76-0.42,4.15c0.18,0.06,0.36,0.12,0.54,0.18    c1.23-2.48,2.47-4.96,3.7-7.43c0.18,0.04,0.37,0.08,0.55,0.11c-0.24,1.59-0.47,3.18-0.73,4.9c2.42-3.62,4.73-7.07,7.04-10.52    c0.38,0.22,0.77,0.45,1.15,0.67c-1.81,2.87-3.63,5.73-5.36,8.47c0.99-0.23,2.37-0.55,3.75-0.86c0.17,0.27,0.33,0.55,0.5,0.82    c-2.44,1.62-4.88,3.25-8.31,5.52c3.19,0.25,5.08,0.39,7.69,0.59c-3.52,2.2-6.55,4.09-10.5,6.56c2.92-0.37,4.72-0.59,7.57-0.95    c-3.69,3.06-6.55,5.43-9.41,7.8c0.15,0.2,0.29,0.41,0.44,0.61c1.62-0.28,3.24-0.55,4.81-0.82c-3.87,3.25-7.67,6.44-11.47,9.63    c0.44,0.46,0.88,0.93,1.32,1.39c2.04-0.45,4.07-0.9,6.33-1.39c-4.99,6.2-9.72,12.08-14.45,17.96c0.3,0.25,0.6,0.49,0.9,0.74    c2.39-1.89,4.78-3.78,7.17-5.66c0.25,0.19,0.49,0.38,0.74,0.57c-3.32,6.57-6.49,13.21-10.05,19.66c-1.34,2.42-3.81,3.82-7.29,2.54    c-1.13,3.03-2.25,6.02-3.17,8.48c7.72-3.74,15.59-7.56,23.46-11.37c0.24,0.32,0.47,0.64,0.71,0.96    c-4.71,5.96-9.31,11.99-14.17,17.83c-1.84,2.21-4.42,3.57-7.86,2.58c-0.47-1.05-0.98-2.17-1.96-4.35    c-2.61,4.62-4.85,8.6-6.88,12.18c7.58-2.46,14.98-4.87,22.39-7.28c0.2,0.31,0.4,0.62,0.6,0.93c-7.16,5.75-10.97,14.55-19.32,19.26    c-1.45-0.65-2.47-1.11-4.16-1.87c-6.05,17.54-11.8,34.99-11.78,54.47c3.28-7.15,5.96-13.77,9.33-20.07    c3.45-6.46,7.37-12.7,11.43-18.83c3.95-5.97,8.35-11.67,12.11-17.54c1.23-0.91,2.56-1.72,3.68-2.74    c8.36-7.61,16.67-15.28,25.04-22.88c1.2-1.09,2.72-1.87,4.33-2.53c-9,10.96-18.01,21.92-27.22,33.13    c3.88,2.5,7.31,4.71,10.74,6.92c-0.15,0.24-0.31,0.48-0.46,0.72c-3.42-2.03-6.83-4.07-11.03-6.57    c-5.14,8.41-10.33,16.49-15.08,24.79c-9.18,16.04-15.14,33.23-19.36,50.99c-0.6,2.53-0.64,5.22-0.67,7.84    c-0.08,8.53-0.03,17.06-0.03,25.33c5.49-12.1,11.06-24.39,16.63-36.67c0.53,0.18,1.07,0.36,1.6,0.53    c-18.81,34.1-20.09,71.3-21.93,108.96c0.92-0.68,1.52-1.04,2.02-1.51c0.45-0.42,0.78-0.95,1.16-1.43    c0.59,0.44,1.06,0.78,1.44,1.06c1.85-5.74,3.46-11.4,5.51-16.91c1.86-4.99,2.55-9.85,0.5-14.94c0.7,1.76,1.39,3.53,2.38,6.03    c2.03-5.47,3.97-10.4,5.66-15.39c1.25-3.68,1.71-7.66,3.32-11.17c7.72-16.8,15.27-33.7,23.78-50.13    c5.5-10.62,12.57-20.5,19.08-30.95c-0.74-1.4-1.78-3.36-2.83-5.32c0.25-0.17,0.51-0.33,0.76-0.5c1.29,1.52,2.57,3.04,3.99,4.72    c24.32-26.81,54.93-34.52,90.53-26.97c-36.05-5.32-65.75,4.31-87.08,33.28c2.84,9.04,5.62,17.87,8.6,27.33    c3.01-5.63,5.91-11.06,8.81-16.49c0.25,0.1,0.5,0.21,0.75,0.31c-2.53,5.73-5.06,11.47-7.74,17.55c3.45-1.73,6.83-3.42,10.74-5.38    c-0.55,1.08-0.92,1.81-1.47,2.9c2.41-0.47,4.58-0.9,6.86-1.34c-5.95,3.48-11.73,6.87-16.73,9.79c0.58,13.75,1.11,26.27,1.65,39.17    c0.53,0.07,1.47,0.2,2.54,0.35c-1.07,0.64-2,1.19-2.37,1.41c-1.84,21.27-3.63,42.02-5.37,62.16c2.04-3.04,4.54-6.77,7.04-10.49    c0.37,0.17,0.75,0.33,1.12,0.5c-6.33,11.26-12.26,22.64-12.32,36.9c1.74-3.17,3.03-5.51,4.01-7.28c1.64-1.24,3.17-2.01,4.15-3.19    c7.26-8.73,13.94-17.95,21.71-26.25c13.78-14.73,29.22-27.85,45.73-39.8c0.7-0.51,1.46-0.93,2.65-0.9    c-7.31,6.65-14.7,13.23-21.92,19.97c-7.24,6.77-14.59,13.45-21.37,20.63c-6.83,7.24-13.01,15.04-19.47,22.59    c0.35,0.39,0.71,0.78,1.06,1.18c6.64-4.19,13.28-8.37,19.93-12.56c0.22,0.3,0.43,0.59,0.65,0.89    c-12.61,9.43-24.47,19.48-32.15,33.55c1.48,0.75,2.24,1.13,2.95,1.49c25.36-23.11,57.18-40.75,81.36-41.19    c-28.21,6.88-51.28,21.77-71.45,41.35c12.32-6.06,25.37-9.73,38.96-11.52c14.06-1.86,27.41,1.18,40.27,6.56    c-5.63-1.3-11.22-2.74-16.89-3.86c-11.36-2.26-22.7-1.46-33.37,2.57c-4.64,1.75-8.27,5.93-12.57,8.88    c1.62-2.18,3.46-4.24,5.94-7.02c-8.69,1.85-15.71,4.92-22.64,10.1C464.33,651.38,467.08,653.53,470.85,651.84z M409.96,606.43    c-0.41-0.84-0.82-1.67-1.23-2.51c-0.42-0.02-0.85-0.05-1.27-0.07c-0.33,2.91-0.67,5.82-1.02,8.87c1.59-0.16,2.4-0.25,3.06-0.32    c0.33-1.97,0.65-3.86,1.03-6.38c1.54-3.52,3.09-7.04,4.63-10.56c-0.42-0.15-0.84-0.29-1.26-0.44    C410.27,598.18,409.18,602.07,409.96,606.43z M158.62,527.84c4.1-3.42,10.64-4.28,15.72-1.72c4.03,2.03,7.84,4.46,11.94,6.83    c-1.27-7.75-2.82-15.24-3.64-22.8c-0.82-7.57-0.92-15.22-1.41-24.1c-2.4-2.81-5.62-6.59-9.12-10.69    c-9.23,18.67-15.86,37.22-21.23,56.2c-0.26,0.91,0.03,1.96-0.16,3.46c-0.87,2-1.73,4-2.51,5.79c3.94,2.64,7.36,4.92,10.66,7.12    c3.29-4.19,6.57-8.38,10.1-12.87c-0.16-1.07-0.38-2.5-0.6-3.93c3.11-0.18,6.05-0.34,9.21-0.52    C171.49,525.6,165.35,524.93,158.62,527.84z M418.13,590.63c1.99-0.47,3.98-0.93,5.81-1.36c0.68-7.41,1.32-14.5,1.97-21.58    c0.27,0.01,0.53,0.02,0.8,0.03c0,11.16,0,22.33,0,34.05c4.76-3.71,8.99-7.01,13.25-10.33c1.43-24.96,4.41-49.83,2.96-74.84    c-0.37-0.13-0.74-0.27-1.11-0.4c-5.69,9.3-11.39,18.6-17.39,28.41c2.01,0,2.99,0,3.98,0c-0.31-0.12-0.63-0.24-0.94-0.36    c-2.08,2.66-4.73,5.09-6.15,8.04c-4.42,9.19-8.55,18.51-12.4,27.92c-1.2,2.94-1.19,6.33-1.73,9.52c0.41,0.07,0.82,0.14,1.23,0.22    c1.92-5.91,3.84-11.82,5.76-17.72c0.16,0.04,0.32,0.08,0.48,0.11c-1.3,6.6-2.6,13.2-3.89,19.75    C413.25,591.64,415.41,591.27,418.13,590.63z M324.56,553.88c1.33-4.57,2.78-9.12,3.93-13.73c0.42-1.7,0.16-3.55,0.23-5.33    c0.01-0.18,0.21-0.34,0.32-0.52c0.45,0.39,0.88,0.78,1.75,1.55c2.43-6.69,6.1-12.83,6.54-19.17c0.42-6.01-2.53-12.23-3.85-17.72    c1.66,3.29,3.67,7.25,5.67,11.22c0.26-0.05,0.52-0.1,0.78-0.15c-1.19-20.86-2.39-41.73-3.61-63.15    c-13.82,18.1-21.31,49.04-17.51,71.37c2.79-5.17,5.54-10.26,8.3-15.35c0.44,0.14,0.87,0.28,1.31,0.41    c-6.76,15.26-12.16,30.75-9.58,47.92c1.34,1.34,2.96,2.96,4.69,4.69C323.91,555.24,324.16,554.8,324.56,553.88z M200.68,488.89    c6.47,16.6,12.93,33.2,19.35,49.69c1.21-5.5,2.45-11.1,3.69-16.7c0.21,2.63-0.13,5.18-0.75,7.66c-2.05,8.22-3.68,16.37,2.59,23.65    c0.7-2.87,1.44-5.87,2.17-8.87c-2.15,8.46-1.01,16.57,2.18,24.6c1.06,2.67,1.54,5.55,2.38,8.3c1.12,3.67,2.33,7.32,3.5,10.98    c0.39,0.18,0.79,0.35,1.18,0.53c0.45-0.75,0.83-1.54,1.36-2.24c0.6-0.79,1.32-1.5,1.87-2.12c0-0.98,0.11-1.74-0.02-2.47    c-3.34-18.97-6.32-38.02-10.19-56.89c-2.8-13.64-7.68-26.77-15.02-38.88c-4.71-7.78-11.75-12.81-21.73-14.88    C195.83,477.28,198.17,482.81,200.68,488.89z M301.65,443.14c-2.34-15.15-4.68-30.29-7.03-45.44c-0.38,0.01-0.76,0.03-1.14,0.04    c-8.52,15.5-15.65,31.54-20.18,48.76c2.43,5.56,4.93,11.28,7.47,17.07c8.74-3.78,16.13-1.57,23.28,4.21    C303.24,459.45,302.47,451.64,301.65,443.14z M182.3,612.57c1.36,3.13,2.71,6.25,4.07,9.38c0.61-0.09,1.22-0.18,1.83-0.27    c-0.15-2.91,0.19-5.93-0.57-8.69c-0.79-2.85-2.65-5.43-4.13-8.3c1.12,0.91,2.11,1.7,3.09,2.5c0.34-0.17,0.69-0.34,1.03-0.51    c-4.67-8.85-9.29-17.71-14.04-26.51c-0.76-1.42-2.02-2.64-3.24-3.78c-4.29-4.02-9.21-6.51-16.11-5.44    c-2.16,4.23-4.4,8.62-6.65,13.02c0.4,0.02,0.8,0.05,1.2,0.07c1.58,1.74,3.16,3.47,5.17,5.67c-0.23-1.66-0.38-2.69-0.64-4.53    c1.18,1.9,1.92,3.1,2.75,4.43c0.93-4.29,1.82-8.37,2.7-12.46c0.82,4.96,1.21,9.83,1.4,14.71c0.19,5,0.66,9.87,4.76,14.33    c-0.31-4.6-0.58-8.59-0.85-12.57c1.86,7.22,4.98,11.06,13.51,15.91c-1.12-3.25-2.2-6.4-3.28-9.55c0.12-0.02,0.23-0.03,0.35-0.05    c1.31,2.41,2.63,4.82,3.94,7.23c0.19-0.08,0.39-0.16,0.58-0.24c-0.27-1.81-0.54-3.62-0.81-5.43c0.37-0.07,0.73-0.15,1.1-0.22    C180.32,604.85,181.19,608.42,182.3,612.57z M275.83,539.24c1.41,5.42,2.81,10.85,4.31,16.64c2.32-6.18,4.71-12.08,6.72-18.1    c0.76-2.27,1.32-4.94,0.83-7.21c-2.45-11.39-5.17-22.73-8.03-34.03c-1.52-6-3.52-11.9-5.3-17.84    c-3.73,11.72-5.69,23.46-4.06,35.33C271.45,522.31,273.87,530.44,275.83,539.24z M299.05,503.78c3.64-7.44,5.77-15.01,5.27-23.49    c-0.43-7.35-4.52-11.53-10.39-14.71c-3.66-1.98-7.75-1.73-10.97,0.01c4.59,15.17,9.07,29.97,13.66,45.12    C297.41,508.34,298.09,506.32,299.05,503.78z M269.1,574.33c1.27,5.62,2.45,11.26,5.95,16.6c1.36-5.94,2.53-11.33,3.86-16.68    c1.07-4.3,1.6-8.43,0.06-12.86c-2.01-5.8-3.24-11.84-4.95-17.73c-1.72-5.95-3.62-11.86-5.73-18.76c-0.76,4.27-1.6,7.43-1.83,10.63    c-0.53,7.21-1.3,14.48-0.92,21.67C265.82,562.74,267.7,568.22,269.1,574.33z M436.21,478.68c-9,15.21-17.02,30.88-23.48,46.49    c9.53-8.06,19.45-16.46,29.43-24.91c-1.25-7.84-2.52-15.78-3.9-24.47C437.33,477.06,436.91,477.65,436.21,478.68z M442.4,506.23    c-0.11-0.55-0.22-1.1-0.4-2.01c-13.06,7.74-23.27,17.53-30.57,30.03c-5.86,10.05-13.28,34.88-11.89,39.73    c4.37-9.19,8.74-18.37,13.17-27.69c-0.62-1.66-1.28-3.43-1.94-5.21c0.18-0.06,0.37-0.12,0.55-0.19c0.76,1.33,1.53,2.65,2.53,4.4    C422.37,531.45,430.67,517.97,442.4,506.23z M366.96,462.53c-1.17,8.43-2.76,16.84-3.43,25.3c-1.47,18.51-2.7,37.04-3.58,55.58    c-0.69,14.54-0.71,29.1-0.98,43.65c-0.02,1.16,0.37,2.32,0.57,3.48c0.97-0.44,1.22-0.75,1.26-1.08    c2.69-22.45,4.17-44.94,4.15-67.56c-0.01-15.29,0.82-30.58,1.66-45.85c0.3-5.52,1.71-10.99,2.61-16.48c-0.3-0.07-0.6-0.13-0.9-0.2    C367.95,460.26,367.59,461.14,366.96,462.53z M298.97,529.78c-0.41,1.71-1.18,3.41-1.18,5.12c0.04,12.52,0.2,25.03,0.42,37.55    c0.05,3.01,0.47,6.01,0.69,8.63c3.13-1.91,6.01-3.67,9.29-5.67c-0.61-10.21-0.75-21.03-2.1-31.71c-0.7-5.49-3.56-10.72-5.44-16.07    c-0.31,0.1-0.62,0.19-0.93,0.29C299.55,528.38,299.38,528.85,298.97,529.78z M176.81,545.6c2.85,8.02,5.59,16.07,8.6,24.03    c0.83,2.2,2.45,4.14,3.7,6.19c0.42-0.16,0.84-0.32,1.26-0.48c0-6.08,0.71-12.25-0.21-18.2c-0.85-5.53-2.9-11.05-5.42-16.13    c-2.01-4.04-7.29-4.56-11.21-1.94C174.54,541.05,175.57,543.05,176.81,545.6z M350.8,474.01c1.35-15.23,2.69-30.46,4.13-46.69    c-4.3,3.18-7.77,5.75-10.59,7.84c1.72,16.01,3.36,31.29,5,46.56c0.2,0,0.41,0.01,0.61,0.01    C350.22,479.37,350.49,477.03,350.8,474.01z M256.5,545.91c0.17,0.26,0.34,0.52,0.51,0.78c0.09-0.09,0.24-0.17,0.25-0.26    c0.61-4.59,1.22-9.19,1.79-13.78c2.46-19.74,4.85-39.47,10.42-58.73c0.92-3.17-0.09-6.84-0.2-10.28    c-0.47-0.01-0.95-0.02-1.42-0.02c-0.53,1.38-1.22,2.73-1.55,4.16C260.28,493.32,254.86,518.94,256.5,545.91z M178.06,569.95    c2.1,3.17,4.2,6.34,6.3,9.51c0.43-0.17,0.85-0.34,1.28-0.51c-4.2-12.86-8.39-25.71-12.59-38.57c-0.5-0.06-1-0.12-1.49-0.18    c-2.67,3.98-5.35,7.96-7.74,11.52C168.81,558.11,173.26,563.82,178.06,569.95z M311.88,405.99c1.61-8.67,3.21-17.34,4.82-26    c-0.19-0.11-0.39-0.21-0.58-0.32c-4.41,5.06-8.82,10.11-13.18,15.11c1.89,9.68,3.71,19.06,5.54,28.44    c0.22-0.03,0.45-0.07,0.67-0.1C310,417.63,310.87,412.13,311.88,405.99z M148.57,569.74c2.46-5.21,4.92-10.42,7.47-15.83    c-3.09-2.33-5.84-4.4-9.02-6.79c-2.8,10.4-4.86,20.29-4.02,30.5c0.34,0.11,0.68,0.21,1.02,0.32    C145.46,575.37,146.9,572.81,148.57,569.74z M193.13,495.68c-0.3-0.39-0.6-0.78-1.11-1.45c0,0.83-0.08,1.33,0.01,1.79    c2.19,10.42,4.37,20.84,6.67,31.23c0.31,1.41,1.2,2.72,1.9,4.03c1.82,3.4,3.68,6.78,5.55,10.15c0.7,1.25,1.48,2.46,2.22,3.69    c0.51-0.22,1.02-0.44,1.53-0.66C204.38,528.37,198.86,512.28,193.13,495.68z M414.52,604.01c-0.65,5.22-1.31,10.44-1.96,15.66    c4.04-4.69,7.19-9.38,10.31-14.09c0.27-0.4,0.46-0.93,0.46-1.4c0.04-4.08,0.02-8.17,0.02-12.57c-2.4,0.67-4.71,1.31-6.67,1.86    C415.98,597.06,415.35,600.23,414.52,604.01z M143.95,601.8c-0.67-0.6-1.34-1.2-2.41-2.16c-1.51,13.33,8.86,21.3,13.06,31.68    C153.21,620.92,152.37,610.36,143.95,601.8z M164.09,569.54c3.93,2.76,7.86,5.53,12.59,8.86c-4.07-8.52-8.33-15.87-15.16-22.08    c-2.41,4.22-4.54,7.96-6.44,11.28C158.06,568.2,160.8,568.75,164.09,569.54z M279.92,599.52c0.76,1.26,0.79,3.71,3.32,1.96    c0.64,1.09,1.3,2.2,1.96,3.31c0.28-0.1,0.56-0.21,0.84-0.31c-0.54-2.34-1.07-4.68-1.77-7.75c1.27,1.39,2.05,2.24,2.57,2.81    c3.89-7.26,0.96-13.61-3.39-19.9C282.24,586.09,281.03,592.55,279.92,599.52z M243.86,531.34c0.34,13.89,0.69,27.79,1.04,41.98    c5.51-10.71,1.08-44.56-2.52-61.39C242.87,518.17,243.35,524.4,243.86,531.34z M165.78,604.48c0.62,6.76,6.98,19.21,10.66,20.63    c0.22-1.2,0.43-2.38,0.75-4.12c0.83,1,1.3,1.56,1.94,2.33c0.19-9.83-7.42-14.93-13.2-22.03    C165.86,602.73,165.83,603.31,165.78,604.48z M236.12,408.49c-0.77-11.62-1.49-23.24-2.39-34.86c-0.12-1.52-1.16-2.97-1.77-4.46    c-0.53,0.15-1.06,0.31-1.59,0.46c1.94,19.08,3.87,38.16,5.81,57.24c0.28-0.02,0.56-0.04,0.84-0.06    C236.73,420.95,236.44,415.08,236.12,408.49z M301.98,601.54c-0.38,6.37,1.25,12.17,4.7,17.46c0.58-0.09,1.15-0.18,1.73-0.26    c-0.87-9.55-1.74-19.1-2.61-28.64c-0.38-0.06-0.76-0.12-1.13-0.18C303.82,593.57,302.98,597.23,301.98,601.54z M316.88,364.78    c2.36-5.47,4.72-10.94,7.07-16.42c-9.04,7.1-14.86,16.17-19.57,26.02c2.69-1.91,5.69-3.69,7.45-6.25    c1.78-2.59,2.32-5.95,3.41-8.97c0.26,0.07,0.52,0.14,0.78,0.21c-0.6,2.52-1.19,5.04-1.79,7.56c0.22,0.08,0.44,0.16,0.66,0.24    C315.49,366.56,316.09,365.93,316.88,364.78z M433.04,602.06c-1.88,2.07-3.76,4.14-5.5,6.05c0,2.67,0,5.15,0,7.62    c0.15,0.03,0.29,0.06,0.44,0.08c0.97-2.42,1.94-4.84,2.91-7.26c0.12,0.03,0.23,0.06,0.35,0.09c-0.38,2.45-0.76,4.9-1.18,7.62    c5.12-5.7,10.42-10.97,8.6-19.32C436.85,598.59,435.14,600.14,433.04,602.06z M202.88,599.58c0.35,0.92,0.7,1.84,1.06,2.76    c0.41-0.13,0.83-0.26,1.24-0.38c-1.29-13.4-6.87-25.72-11.26-38.34c0.13,3.38,0.1,6.82,0.99,10.02    C197.27,582.15,200.05,590.58,202.88,599.58z M234.32,359.2c-0.27-4.35-0.54-8.7-0.75-12.25c-2.82-2.26-5.04-4.02-7.07-5.65    C225.59,348.56,229.11,354.39,234.32,359.2z M228.73,324.79c1.7,2.05,3.4,4.1,5.54,6.69c0-5.14,0-9.42,0-13.9    c-1.86-0.34-3.47-0.64-5.66-1.04C228.61,319.29,228.61,321.74,228.73,324.79z M330.72,577.5c-1.33,3.86,1.08,6,4.68,8.52    c-0.08-6.05,1.42-11.51-0.82-16.8c-0.49-0.07-0.98-0.14-1.47-0.21C332.34,571.63,331.58,574.26,330.72,577.5z M304.91,528.77    c0.57,0.92,1.13,1.84,1.59,2.58c0-6.78,0-13.59,0-20.39C302.63,516.57,300.14,522.21,304.91,528.77z M337.87,556.24    c-0.39-2.8-0.78-5.61-1.25-9c-5.25,10.43-5.09,13.93,0.71,19.87C337.53,563.61,337.72,560.26,337.87,556.24z M319.58,554.94    c-0.34-0.01-0.68-0.02-1.02-0.04c0.12,6.46,0.23,12.92,0.35,19.37c0.45,0.01,0.9,0.01,1.34,0.02c1.04-4.96,2.07-9.93,3.03-14.55    C321.92,558.01,320.9,556.71,319.58,554.94z M287.04,562.68c-0.17-1.25-0.34-2.5-0.49-3.66c-5.97,8.46-0.71,15.53,3.12,22.79    C288.83,575.64,287.99,569.47,287.04,562.68z M249.3,598.7c0.19,0.3,0.38,0.61,1.14,1.84c-0.51-9.71-0.96-18.43-1.41-27.15    C246.79,581.75,246.68,590.04,249.3,598.7z M423.43,627.09c0.5-4.9,1-9.8,1.49-14.7c-0.44-0.08-0.88-0.16-1.32-0.23    c-1.42,5.6-2.83,11.2-4.25,16.79c0.39,0.18,0.79,0.36,1.18,0.54C421.43,628.86,422.32,628.24,423.43,627.09z M170.03,634.11    c-1.85-5.25-4.29-10.18-7.83-14.53c-0.36,0.14-0.72,0.29-1.08,0.43c1.19,4.37,2.38,8.75,3.57,13.12c0.27-0.06,0.55-0.13,0.82-0.19    c-0.17-1.44-0.33-2.88-0.58-5.05C166.79,630.27,168.21,632.07,170.03,634.11z M308.16,579.75c-4.91,0.53-7.45,5.72-5.77,11.89    c1.29-2.52,2.56-5,3.96-7.74c0.4,1.4,0.71,2.49,1.02,3.57c0.18-0.03,0.36-0.06,0.54-0.08    C308.16,584.94,308.41,582.5,308.16,579.75z M332.09,592.95c-0.5-0.92-1-1.85-1.64-3.02c-2.65,4.55-2.19,10.68,0.98,13.69    C331.72,600.09,332,596.79,332.09,592.95z M430.87,625.55c0.78,0.92,1.56,1.84,2.44,2.87c1.25-4.89,2.46-9.6,3.67-14.32    c-0.36-0.14-0.72-0.28-1.09-0.42C434.18,617.47,432.47,621.24,430.87,625.55z M241.41,601.5c-0.29-4.16-0.57-8.32-0.87-12.65    c-3.69,2.7-3.32,7.74,0.88,15.1C241.42,603.27,241.42,602.66,241.41,601.5z M226.67,321.64c-0.11-3.24,0.74-6.78-2.97-8.97    c-1.71,4.2-0.46,10.25,2.98,13.15C226.68,324.47,226.68,323.39,226.67,321.64z M279.25,578.36c-0.21,1.96-0.42,3.93-0.63,5.89    c3.98-4.64,4.71-9.7,3.12-15.16C280.99,571.98,280.24,574.87,279.25,578.36z M343.75,584.05c0.73,3.43-2.7,7.47,2.14,11.16    c-0.31-6.18-0.57-11.54-0.84-16.9c-0.15-0.01-0.3-0.02-0.45-0.03C344.33,579.99,344.05,581.69,343.75,584.05z M212.1,551.99    c-0.89-1.39-1.77-2.78-2.66-4.17c-0.43,0.2-0.85,0.4-1.28,0.61c2.21,5.55,4.43,11.1,6.64,16.65c0.21-0.07,0.43-0.14,0.64-0.2    C214.38,560.77,213.33,556.66,212.1,551.99z M319.16,579.71c-0.12-0.04-0.24-0.11-0.37-0.13c-0.09-0.02-0.27,0.02-0.27,0.03    c-0.01,6.74-0.01,13.49-0.01,20.23c0.37,0,0.73,0,1.1,0C319.61,593.29,319.61,586.72,319.16,579.71z M371.48,611.58    c0.88-3.18,1.75-6.35,2.63-9.53c-0.68-0.13-1.37-0.26-2.05-0.38C371.73,604.95,371.4,608.24,371.48,611.58z M148.96,598.37    c0.95,1.03,1.89,2.06,2.84,3.08c0.28-0.22,0.56-0.44,0.84-0.66c-2.35-3.17-4.7-6.34-7.06-9.51c-0.41,0.27-0.81,0.53-1.22,0.8    C145.78,594.05,147.19,596,148.96,598.37z M130.71,587c0.58,0.89,1.15,1.78,1.73,2.68c0.19-0.06,0.38-0.12,0.57-0.19    c-0.22-1.76-0.44-3.53-0.68-5.46c-1.39-0.86-2.76-1.71-4.13-2.56c-0.15,0.18-0.3,0.37-0.44,0.55    C128.65,583.54,129.53,585.05,130.71,587z M179.63,472.97c0.97,1.29,1.95,2.58,2.92,3.87c0.18-0.11,0.35-0.23,0.53-0.34    c-0.35-1.94-0.7-3.88-1.08-5.98c-1.29,0.09-2.41,0.17-3.97,0.29C178.59,471.63,178.93,472.11,179.63,472.97z M243.79,253.99    c0.37-4.09,0.73-8.17,1.1-12.26c-0.47-0.02-0.94-0.04-1.4-0.06C243.49,245.85,243.49,250.03,243.79,253.99z"/>

<path d="M105.15,651.9c-20.82-12.22-43.87-18.34-66.64-25.12c25.45,4.98,50.34,11.32,71.92,25.83c-0.13,0.33-0.25,0.66-0.38,1    C108.49,653.09,106.94,652.57,105.15,651.9z"/>

<path d="M306.47,59.43c-0.56,0.09-1.16,0.2-2.35,0.43c4.75-8.52,9.79-16.31,19.12-21.77c-4.15,8.62-10.48,14.77-16.86,21.15    C306.38,59.53,306.43,59.46,306.47,59.43z"/>

<path d="M361.95,149.86c2.66-2.85,5.17-5.47,7.69-8.09c0.44,0.35,0.88,0.7,1.32,1.06c-3.99,4.89-7.97,9.78-11.96,14.67    c-0.46-0.29-0.92-0.58-1.38-0.87C359.02,154.45,360.41,152.27,361.95,149.86z"/>

</g>

</g>

</svg>