<?xml version="1.0" encoding="iso-8859-1"?>
<!-- Uploaded to: SVG Repo, www.svgrepo.com, Generator: SVG Repo Mixer Tools -->
<svg height="800px" width="800px" version="1.1" id="Capa_1" xmlns="http://www.w3.org/2000/svg" xmlns:xlink="http://www.w3.org/1999/xlink" 
	 viewBox="0 0 19.944 19.944" xml:space="preserve">
<g>
	<path style="fill:#030104;" d="M19.944,14.928c0,0-0.363-0.527-2.59-1.023c-0.188-0.979-0.672-3.19-0.498-3.69
		c0.217-0.615,0.152-1.108,0.092-1.764c-0.061-0.655,0.244-1.353-0.184-1.637c-0.432-0.287-1.176-0.189-1.572-0.151
		c-0.4,0.043-0.43,0.043-0.492,1.066c-0.061,1.023-0.346,2.323-0.281,2.488c0.043,0.113,0.191,2.034,0.273,3.174
		c-0.535-0.051-1.205-0.115-1.23-0.115c-0.104-1.541-0.279-4.125-0.355-4.821c-0.037-0.356-0.08-0.647-0.139-0.885
		c0.219-0.12,0.488-0.892,0.514-1.357c0.035-0.506,0.064-1.156-0.852-1.194c-0.91-0.035-4.444,0.218-4.729,0.218
		c-0.283,0-0.691,1.084-0.536,1.481C7.524,7.113,7.4,7.434,7.736,7.474c-0.22,0.497-0.417,1.915-0.483,3.113
		c-0.045,0.799-0.138,1.954-0.16,2.834c-0.184,0.011-0.197,0.033-0.371,0.047c0.064-0.67-0.079-1.508-0.271-2.146
		c-0.337-1.109,0.062-2.581,0.062-2.68c0-0.167-0.269-0.848-0.55-1.221C6.166,7.29,6.688,6.716,5.979,6.212
		C5.782,6.072,3.46,6.429,3.133,6.429c-0.322,0-1.438,0.606-1.521,0.788c-0.074,0.166,0.27,0.339,0.578,0.45
		C2.178,7.674,2.167,7.684,2.158,7.696C2.113,7.743,1.957,8.883,1.632,9.173c-0.277,0.248-0.141,3.96,0.019,5.008
		C0.246,14.566,0,14.928,0,14.928S19.944,14.928,19.944,14.928z M4.24,13.719C4.162,13.73,3.548,13.74,3.477,13.75
		c-0.042-1.49,0.162-4.994,0.12-5.334C3.547,8.023,3.809,7.78,3.436,7.628C3.74,7.613,4.071,7.594,4.394,7.572
		C4.276,8.583,4.281,12.069,4.24,13.719z M10.62,13.299c-0.346,0-1.011,0.008-1.157,0.01c0.021-1.799,0.029-4.94-0.131-5.796
		c0.23,0.004,1.262,0.011,1.506,0.016C10.827,7.832,10.612,11.534,10.62,13.299z"/>
</g>
</svg>