<?xml version="1.0" encoding="iso-8859-1"?>
<!-- Uploaded to: SVG Repo, www.svgrepo.com, Generator: SVG Repo Mixer Tools -->
<!DOCTYPE svg PUBLIC "-//W3C//DTD SVG 1.1//EN" "http://www.w3.org/Graphics/SVG/1.1/DTD/svg11.dtd">
<svg fill="#000000" version="1.1" id="Capa_1" xmlns="http://www.w3.org/2000/svg" xmlns:xlink="http://www.w3.org/1999/xlink" 
	 width="800px" height="800px" viewBox="0 0 337.994 337.994"
	 xml:space="preserve">
<g>
	<g>
		<g id="Layer_5_51_">
			<g>
				<path d="M185.936,171.392c-4.812,5.053-14.454,9.187-21.434,9.187H12.686c-6.978,0-8.749-4.134-3.938-9.187l136.578-143.42
					c4.812-5.053,14.456-9.187,21.434-9.187h151.817c6.978,0,8.749,4.134,3.938,9.187L185.936,171.392z"/>
				<path d="M177.325,306.524c0,6.978-5.707,12.686-12.685,12.686H12.686C5.708,319.21,0,313.502,0,306.524v-97.913
					c0-6.979,5.708-12.688,12.686-12.688H164.64c6.978,0,12.685,5.709,12.685,12.688V306.524z"/>
				<path d="M337.79,129.296c-0.017,6.978-3.766,17.003-8.33,22.279L197.913,303.64c-4.563,5.274-8.299,3.885-8.299-3.093v-97.801
					c0-6.977,3.939-16.813,8.76-21.859L329.265,43.797c4.817-5.047,8.745-3.467,8.729,3.51L337.79,129.296z"/>
			</g>
		</g>
	</g>
</g>
</svg>