<?xml version="1.0" encoding="iso-8859-1"?>
<!-- Uploaded to: SVG Repo, www.svgrepo.com, Generator: SVG Repo Mixer Tools -->
<!DOCTYPE svg PUBLIC "-//W3C//DTD SVG 1.1//EN" "http://www.w3.org/Graphics/SVG/1.1/DTD/svg11.dtd">
<svg fill="#000000" height="800px" width="800px" version="1.1" id="Capa_1" xmlns="http://www.w3.org/2000/svg" xmlns:xlink="http://www.w3.org/1999/xlink" 
	 viewBox="0 0 54.838 54.838" xml:space="preserve">
<g>
	<path d="M13.132,21.31l0.943-1.348c1.117-1.598,2.707-2.896,4.857-3.969c1.553-0.774,3.323-1.301,5.159-1.698
		c-0.133-0.143-0.261-0.278-0.395-0.423c-2.628-2.827-5.607-6.031-8.739-7.65c-1.782-0.921-3.406-1.37-4.966-1.37
		c-2.711,0-5.057,1.328-7.38,4.178c-4.096,5.024-3.269,12.974,1.762,19.715C5.744,24.507,8.683,22.02,13.132,21.31z M8.203,11.615
		l3.426-2.294c0.458-0.308,1.08-0.184,1.387,0.275c0.307,0.458,0.184,1.08-0.275,1.387l-3.426,2.294
		c-0.17,0.114-0.364,0.169-0.555,0.169c-0.323,0-0.639-0.156-0.832-0.444C7.621,12.543,7.744,11.922,8.203,11.615z M4.225,18.291
		c-0.467-0.295-0.607-0.912-0.312-1.379c0.294-0.467,0.914-0.606,1.379-0.312l3.487,2.2c0.467,0.295,0.607,0.912,0.312,1.379
		c-0.19,0.301-0.515,0.466-0.847,0.466c-0.183,0-0.367-0.05-0.533-0.154L4.225,18.291z"/>
	<path d="M54.474,19.031c-1.218-4.653-3.431-6.638-7.401-6.638c-2.582,0-5.921,0.822-10.356,1.982
		c-1.453,0.38-3.448,0.617-5.561,0.867c-3.833,0.454-8.178,0.969-11.332,2.542c-1.839,0.917-3.198,2.019-4.112,3.325
		c3.582,0.012,7.609,1.157,11.134,2.188c1.975,0.577,3.838,1.122,5.187,1.321c5.907,0.872,9.688,1.521,12.391,3.187
		c2.225,1.372,3.492,3.377,3.87,6.042C53.41,29.718,55.808,24.127,54.474,19.031z M36.229,23.352
		c-0.082,0.021-0.163,0.03-0.244,0.03c-0.448,0-0.855-0.303-0.969-0.757l-1-4c-0.134-0.536,0.192-1.079,0.728-1.213
		c0.537-0.133,1.079,0.192,1.213,0.728l1,4C37.091,22.675,36.765,23.218,36.229,23.352z M49.712,23.122l-3.053,2.771
		c-0.191,0.174-0.432,0.259-0.671,0.259c-0.272,0-0.543-0.11-0.741-0.328c-0.371-0.409-0.34-1.042,0.069-1.413l3.053-2.771
		c0.409-0.371,1.041-0.34,1.413,0.069C50.152,22.118,50.121,22.751,49.712,23.122z"/>
	<path d="M43.376,29.508c-2.375-1.464-5.979-2.077-11.633-2.911c-1.487-0.219-3.415-0.783-5.457-1.38
		c-3.688-1.079-7.922-2.313-11.421-2.099c-5.423,0.327-8.337,3.102-9.168,8.734c-0.594,4.027,1.003,8.108,4.499,11.492
		c3.407,3.298,8.234,5.549,13.592,6.34c1.363,0.201,2.74,0.303,4.092,0.303c9.61,0,17.339-5.11,18.377-12.15
		C46.87,33.683,45.982,31.115,43.376,29.508z M14.229,37.755c-0.082,0.021-0.163,0.03-0.244,0.03c-0.448,0-0.855-0.303-0.969-0.757
		l-1-4c-0.134-0.536,0.192-1.079,0.728-1.213c0.536-0.135,1.079,0.192,1.213,0.728l1,4C15.091,37.079,14.765,37.622,14.229,37.755z
		 M25.321,33.122c0.146-0.532,0.696-0.848,1.229-0.7l3.976,1.092c0.533,0.146,0.846,0.697,0.7,1.229
		c-0.122,0.444-0.525,0.736-0.964,0.736c-0.087,0-0.177-0.012-0.265-0.036l-3.976-1.092C25.488,34.204,25.175,33.654,25.321,33.122z
		 M31.543,43.322l-3.426,2.294c-0.17,0.114-0.364,0.169-0.555,0.169c-0.323,0-0.639-0.156-0.832-0.444
		c-0.307-0.458-0.184-1.08,0.275-1.387l3.426-2.294c0.458-0.307,1.08-0.184,1.387,0.275C32.125,42.394,32.002,43.015,31.543,43.322z
		"/>
</g>
</svg>