<?xml version="1.0" encoding="utf-8"?>

<!DOCTYPE svg PUBLIC "-//W3C//DTD SVG 1.1//EN" "http://www.w3.org/Graphics/SVG/1.1/DTD/svg11.dtd">
<!-- Uploaded to: SVG Repo, www.svgrepo.com, Generator: SVG Repo Mixer Tools -->
<svg version="1.1" id="_x32_" xmlns="http://www.w3.org/2000/svg" xmlns:xlink="http://www.w3.org/1999/xlink" 
	 width="800px" height="800px" viewBox="0 0 512 512"  xml:space="preserve">
<style type="text/css">
<![CDATA[
	.st0{fill:#000000;}
]]>
</style>
<g>
	<path class="st0" d="M264.679,123.344c14.047-58.5,11.5-60.281,40.609-105.563L251.147,6.938c0,0-24.359,67.688-13.531,113.703
		C247.101,130.125,264.679,123.344,264.679,123.344z"/>
	<path class="st0" d="M156.632,317.125c-0.094-7.125-0.141-13.547-0.141-19.625c0.016-26.922,0.922-49.375,2.766-68.672
		c2.438-25.344,6.469-45.516,12.328-61.656c0.609-1.656,1.25-3.297,1.953-4.984c-5.031-1.969-10.875-2.984-17.109-2.984
		c-9.313,0-19.156,2.313-27.078,6.359c-9.484,8.688-18.75,20.484-26.813,34.156C87.897,224.531,70.46,266.625,70.46,326.375
		c-0.016,33.125,9.234,70.297,26.031,104.672c10.094,20.672,22.703,39.969,37.5,57.422c17.141,5.406,35.969,9.531,56.031,12.313
		c-7.672-16.234-14.031-33.906-18.906-52.609C159.257,402.688,157.132,356.406,156.632,317.125z"/>
	<path class="st0" d="M48.804,326.375c0-34.813,5.609-67.844,16.688-98.188C73.116,207.313,83.351,187.984,95.21,172
		c-0.75-0.094-1.516-0.141-2.344-0.141c-16.25,0-42.266,19.172-55.453,36.375c-27.141,35.422-47.578,98.344-32.031,159.109
		c11.859,46.344,43.25,83.078,91.063,106.703c-7.25-10.922-13.797-22.359-19.547-34.078
		C58.788,402.875,48.804,362.531,48.804,326.375z"/>
	<path class="st0" d="M409.46,199.719c-8.063-13.672-17.313-25.469-26.813-34.156c-7.922-4.047-17.766-6.359-27.078-6.359
		c-6.234,0-12.078,1.016-17.109,2.984c0.703,1.688,1.359,3.328,1.953,5c5.859,16.125,9.906,36.297,12.344,61.641
		c1.844,19.297,2.734,41.75,2.75,68.672c0,6.078-0.047,12.5-0.141,19.625c-0.5,39.281-2.625,85.563-14.469,131.047
		c-4.891,18.703-11.25,36.375-18.922,52.609c20.078-2.781,38.891-6.906,56.047-12.313c14.781-17.453,27.391-36.75,37.5-57.422
		c16.797-34.375,26.031-71.547,26.031-104.672C441.554,266.625,424.101,224.531,409.46,199.719z"/>
	<path class="st0" d="M333.71,316.859c0.094-6.922,0.141-13.266,0.141-19.359c0-19.453-0.469-36.188-1.422-51.156
		c-1.797-28.078-5.453-50.859-10.922-67.719c-3-9.359-6.609-17.109-10.719-23c-0.156-0.219-0.328-0.469-0.5-0.688
		c-13.328-5-29.766-7.219-53.109-7.219h-2.359c-23.344,0-39.781,2.219-53.109,7.219c-0.156,0.219-0.344,0.469-0.5,0.688
		c-4.109,5.891-7.719,13.641-10.734,23c-5.453,16.859-9.109,39.641-10.891,67.719c-0.969,14.969-1.422,31.703-1.422,51.156
		c0,6.094,0.031,12.438,0.125,19.359c0.328,26.156,1.438,60.547,7.188,94.797c5.859,35.094,15.625,65.031,29.813,91.469l0.156,0.266
		c13.031,1.047,26.672,1.609,40.563,1.672c13.875-0.063,27.516-0.625,40.547-1.672l0.156-0.266
		c14.203-26.438,23.969-56.375,29.828-91.469C332.272,377.406,333.382,343.016,333.71,316.859z"/>
	<path class="st0" d="M474.601,208.234c-13.203-17.203-39.219-36.375-55.469-36.375c-0.813,0-1.594,0.047-2.344,0.141
		c11.859,15.984,22.109,35.313,29.719,56.203c11.078,30.328,16.703,63.359,16.703,98.172c-0.016,36.156-10,76.5-28.109,113.594
		c-5.734,11.719-12.281,23.156-19.531,34.078c47.813-23.625,79.188-60.359,91.047-106.703
		C522.163,306.578,501.741,243.656,474.601,208.234z"/>
</g>
</svg>