<?xml version="1.0" encoding="utf-8"?>
<!-- Uploaded to: SVG Repo, www.svgrepo.com, Generator: SVG Repo Mixer Tools -->
<svg fill="#000000" width="800px" height="800px" viewBox="0 0 32 32" version="1.1" xmlns="http://www.w3.org/2000/svg">
<title>rabbit</title>
<path d="M23.961 5.99c-0.333-0.007-0.681 0.013-1.030 0.065-4.414-1.996-5.841-4.914-7.812-4.914-1.705 0-1.62 3.149 4.884 6.521-0.012 0.015-0.023 0.030-0.035 0.046-0.496 0.68-6.986-3.097-8.985-3.093-2.692 0.006 1.257 6.368 7.689 5.369 0.61-0.095-0.302 0.909-0.227 1.48v-0c0.023 0.176 0.065 0.345 0.123 0.506-6.275-0.164-10.188 0.982-12.463 2.774-1.616-0.903-1.672-4.089-3.337-3.265-1.77 0.876-0.679 5.582 0.831 7.142-1.022 4.432 2.247 9.722 4.846 11.331h20.509c1.112-0.789 0.487-1.41 0-1.997-0.602-0.725-2.461-1.199-3.993-0.998-2.23-0.908 5.444-5.973 0.027-11.95 1.021 0.058 2.186-0.023 3.2-0.342 0.023 0.016 0.047 0.033 0.071 0.049l0.045-0.086c0.931-0.313 1.723-0.836 2.137-1.648 0.51-0.998-3.303-6.922-6.479-6.989zM24.957 10.973c-0.551 0-0.998-0.447-0.998-0.998s0.447-0.998 0.998-0.998c0.551 0 0.998 0.447 0.998 0.998s-0.447 0.998-0.998 0.998z"></path>
</svg>