<?xml version="1.0" encoding="utf-8"?>
<!-- Uploaded to: SVG Repo, www.svgrepo.com, Generator: SVG Repo Mixer Tools -->
<svg fill="#000000" version="1.1" id="Layer_1" xmlns="http://www.w3.org/2000/svg" xmlns:xlink="http://www.w3.org/1999/xlink" 
	 width="800px" height="800px" viewBox="0 0 188 256" enable-background="new 0 0 188 256" xml:space="preserve">
<path d="M177.364,171.376l-60.862-97.379L161.501,2H26.494l44.998,71.997l-60.862,97.379c-6.787,10.861-9.162,22.695-8.011,33.926
	C5.282,231.264,26.813,254,56.421,254h0.004h75.146h2.553l0.071-0.067C175.039,252.054,199.376,206.595,177.364,171.376z
	 M90.364,231.943c-14.732-1.026-26.107-14.359-22.005-30.396C80.76,206.208,90.923,213.295,90.364,231.943z M90.364,203.225
	c-14.732-1.119-26.107-14.452-22.005-30.396C80.76,177.49,90.923,184.577,90.364,203.225z M90.364,174.414
	c-14.732-1.119-26.107-14.359-22.005-30.396C80.76,148.679,90.923,155.766,90.364,174.414z M93.161,148.586
	c-13.054-6.807-18.182-23.59-8.205-36.643C94.466,121.173,101.086,131.616,93.161,148.586z M97.636,224.483
	c-0.559-18.648,9.604-25.734,22.005-30.396C123.744,210.124,112.368,223.365,97.636,224.483z M97.636,195.672
	c-0.559-18.648,9.604-25.734,22.005-30.396C123.744,181.313,112.368,194.553,97.636,195.672z M97.636,166.861
	c-0.559-18.648,9.604-25.734,22.005-30.396C123.744,152.502,112.368,165.835,97.636,166.861z"/>
</svg>