<?xml version="1.0" encoding="utf-8"?>
<!-- Uploaded to: SVG Repo, www.svgrepo.com, Generator: SVG Repo Mixer Tools -->
<svg fill="#000000" version="1.1" id="Layer_1" xmlns="http://www.w3.org/2000/svg" xmlns:xlink="http://www.w3.org/1999/xlink" 
	 width="800px" height="800px" viewBox="0 0 256 194" xml:space="preserve">
<path d="M250.9,45l-22.7-22.7c-4.6-4.6-10.9-7.2-17.4-7.2h-14.1c0.1-2.3-0.8-4.7-2.6-6.5c-3.5-3.5-14.1-8.5-17.5-5
	c-3.5,3.5,1.6,14.1,5,17.5c0.4,0.4,0.9,0.8,1.3,1.1l-19.9,19.7H50.9C25.5,41.9,4.4,61,2.2,85.8c-0.2,2.3,1.6,4.3,3.9,4.3h3.8v32.5
	L2,140.4v41.4l5.5,9.8l17.1,0l-9.3-12.9l4.1-23.3l21.3-24.2l9.1,50.8l5.4,9.6H73l-9.5-12.7l-2.5-23.6l16.7-18.2
	c16.7,2,35.7,3.3,56.3,2.9l7.2,41.6l5.8,9.9h16.7l-8.9-12.9v-39.6c3.4-0.3,6.9-0.6,10.3-1l7.5,43.6l5.8,9.9h16.7l-8.9-12.9v-47.2
	c28.3-25.4,33.2-68.3,33.2-68.3h23.8c3.9,0,7.5-2.1,9.4-5.6C255,53.4,254.2,48.3,250.9,45z"/>
</svg>